<svg width="440" height="956" viewBox="0 0 440 956" fill="none" xmlns="http://www.w3.org/2000/svg">
<rect width="440" height="956" fill="white"/>
<rect x="54" y="35" width="350" height="54" rx="20" fill="#E9E9E9"/>
<path d="M80.0676 49.3807C74.2581 49.3807 69.5322 54.1066 69.5322 59.9161C69.5322 65.7256 74.2581 70.4514 80.0676 70.4514C81.8436 70.4514 83.5894 70.03 85.0644 69.2173C85.1825 69.3595 85.3135 69.4905 85.4557 69.6086L88.4658 72.6187C88.7437 72.9315 89.0827 73.1841 89.4618 73.3611C89.8409 73.5381 90.2522 73.6358 90.6704 73.6481C91.0887 73.6604 91.505 73.5871 91.8939 73.4327C92.2827 73.2783 92.636 73.046 92.9318 72.7502C93.2277 72.4543 93.4599 72.1011 93.6144 71.7122C93.7688 71.3234 93.8421 70.907 93.8298 70.4888C93.8174 70.0706 93.7198 69.6593 93.5428 69.2801C93.3657 68.901 93.1131 68.5621 92.8003 68.2842L89.7902 65.274C89.6436 65.1274 89.4822 64.9962 89.3086 64.8827C90.1214 63.4078 90.6331 61.692 90.6331 59.886C90.6331 54.0765 85.9072 49.3506 80.0977 49.3506L80.0676 49.3807ZM80.0676 52.3908C84.2516 52.3908 87.5929 55.732 87.5929 59.9161C87.5929 61.9027 86.8704 63.7389 85.6062 65.0934C85.5761 65.1235 85.546 65.1536 85.5159 65.1837C85.3737 65.3019 85.2427 65.4329 85.1246 65.5751C83.8001 66.7791 81.9941 67.4714 80.0375 67.4714C75.8534 67.4714 72.5122 64.1302 72.5122 59.9462C72.5122 55.7621 75.8534 52.4209 80.0375 52.4209L80.0676 52.3908Z" fill="#A1A1A1"/>
<path d="M106.384 67C106.058 67 105.896 66.821 105.896 66.4629V53.5332C105.896 53.1751 106.058 52.9961 106.384 52.9961H109.987C112.748 52.9961 114.665 53.6081 115.739 54.832C116.82 56.0495 117.36 57.765 117.36 59.9785C117.36 62.1921 116.82 63.9173 115.739 65.1543C114.665 66.3848 112.748 67 109.987 67H106.384ZM107.771 65.3984H109.899C112.048 65.3984 113.493 64.9427 114.235 64.0312C114.984 63.1198 115.358 61.7689 115.358 59.9785C115.358 58.1882 114.984 56.8405 114.235 55.9355C113.493 55.0306 112.048 54.5781 109.899 54.5781H107.771V65.3984ZM119.089 61.873C119.089 60.3431 119.493 59.0801 120.3 58.084C121.114 57.0814 122.302 56.5801 123.864 56.5801C125.427 56.5801 126.612 57.0814 127.419 58.084C128.233 59.0801 128.64 60.3431 128.64 61.873C128.64 63.403 128.233 64.6693 127.419 65.6719C126.612 66.668 125.427 67.166 123.864 67.166C122.302 67.166 121.114 66.668 120.3 65.6719C119.493 64.6693 119.089 63.403 119.089 61.873ZM120.905 61.873C120.905 63.2402 121.175 64.2526 121.716 64.9102C122.256 65.5677 122.972 65.8965 123.864 65.8965C124.756 65.8965 125.472 65.5677 126.013 64.9102C126.553 64.2526 126.823 63.2402 126.823 61.873C126.823 60.5059 126.553 59.4935 126.013 58.8359C125.472 58.1784 124.756 57.8496 123.864 57.8496C122.972 57.8496 122.256 58.1784 121.716 58.8359C121.175 59.4935 120.905 60.5059 120.905 61.873ZM130.3 61.873C130.3 60.3431 130.677 59.0801 131.433 58.084C132.194 57.0814 133.356 56.5801 134.919 56.5801C135.974 56.5801 136.778 56.7689 137.331 57.1465C137.891 57.5176 138.295 57.8984 138.542 58.2891C138.679 58.5039 138.649 58.6764 138.454 58.8066L137.839 59.207C137.644 59.3438 137.448 59.2559 137.253 58.9434C137.064 58.6439 136.797 58.3867 136.452 58.1719C136.114 57.957 135.603 57.8496 134.919 57.8496C134.027 57.8496 133.337 58.1784 132.849 58.8359C132.36 59.4935 132.116 60.5059 132.116 61.873C132.116 63.2402 132.36 64.2526 132.849 64.9102C133.337 65.5677 134.027 65.8965 134.919 65.8965C135.642 65.8965 136.195 65.7598 136.579 65.4863C136.963 65.2064 137.243 64.9036 137.419 64.5781C137.588 64.2721 137.78 64.1842 137.995 64.3145L138.649 64.7051C138.845 64.8223 138.874 64.998 138.737 65.2324C138.575 65.5124 138.203 65.9062 137.624 66.4141C137.051 66.9154 136.149 67.166 134.919 67.166C133.356 67.166 132.194 66.668 131.433 65.6719C130.677 64.6693 130.3 63.403 130.3 61.873ZM140.378 58.0352C140.085 58.0352 139.938 57.9212 139.938 57.6934V57.0879C139.938 56.86 140.085 56.7461 140.378 56.7461H141.53V55.8672C141.53 55.737 141.563 55.6133 141.628 55.4961L142.312 54.2559C142.435 54.028 142.536 53.9141 142.614 53.9141H142.956C143.151 53.9141 143.249 54.028 143.249 54.2559V56.7461H145.329C145.622 56.7461 145.769 56.86 145.769 57.0879V57.6934C145.769 57.9212 145.622 58.0352 145.329 58.0352H143.249V64.2559C143.249 64.9395 143.35 65.3854 143.552 65.5938C143.76 65.7956 144.007 65.8965 144.294 65.8965C144.515 65.8965 144.779 65.8314 145.085 65.7012C145.397 65.571 145.612 65.4603 145.729 65.3691C145.847 65.278 145.938 65.3073 146.003 65.457L146.325 66.209C146.377 66.3392 146.338 66.4434 146.208 66.5215C145.954 66.6712 145.583 66.8177 145.095 66.9609C144.606 67.0977 144.118 67.166 143.63 67.166C142.953 67.166 142.432 66.9219 142.067 66.4336C141.709 65.9453 141.53 65.2552 141.53 64.3633V58.0352H140.378ZM147.722 61.873C147.722 60.3431 148.125 59.0801 148.933 58.084C149.746 57.0814 150.935 56.5801 152.497 56.5801C154.06 56.5801 155.244 57.0814 156.052 58.084C156.866 59.0801 157.272 60.3431 157.272 61.873C157.272 63.403 156.866 64.6693 156.052 65.6719C155.244 66.668 154.06 67.166 152.497 67.166C150.935 67.166 149.746 66.668 148.933 65.6719C148.125 64.6693 147.722 63.403 147.722 61.873ZM149.538 61.873C149.538 63.2402 149.808 64.2526 150.349 64.9102C150.889 65.5677 151.605 65.8965 152.497 65.8965C153.389 65.8965 154.105 65.5677 154.646 64.9102C155.186 64.2526 155.456 63.2402 155.456 61.873C155.456 60.5059 155.186 59.4935 154.646 58.8359C154.105 58.1784 153.389 57.8496 152.497 57.8496C151.605 57.8496 150.889 58.1784 150.349 58.8359C149.808 59.4935 149.538 60.5059 149.538 61.873ZM159.929 67C159.636 67 159.489 66.8535 159.489 66.5605V57.1855C159.489 56.8926 159.636 56.7461 159.929 56.7461H160.749C161.042 56.7461 161.188 56.8926 161.188 57.1855V58.3574H161.228C161.54 57.7715 161.908 57.3288 162.331 57.0293C162.754 56.7298 163.282 56.5801 163.913 56.5801C164.33 56.5801 164.623 56.6159 164.792 56.6875C164.942 56.7461 164.997 56.8438 164.958 56.9805L164.733 57.7812C164.701 57.8984 164.616 57.944 164.479 57.918C164.252 57.8724 164.037 57.8496 163.835 57.8496C163.073 57.8496 162.445 58.1947 161.95 58.8848C161.455 59.5684 161.208 60.5026 161.208 61.6875V66.5605C161.208 66.8535 161.062 67 160.769 67H159.929ZM165.554 70.8184C165.332 70.7272 165.277 70.5449 165.388 70.2715L172.37 52.9766C172.481 52.7031 172.647 52.612 172.868 52.7031L173.308 52.8789C173.516 52.9635 173.565 53.1426 173.454 53.416L166.472 70.7109C166.361 70.9844 166.201 71.0788 165.993 70.9941L165.554 70.8184ZM175.505 67C175.179 67 175.017 66.821 175.017 66.4629V53.5332C175.017 53.1751 175.179 52.9961 175.505 52.9961H176.403C176.729 52.9961 176.892 53.1751 176.892 53.5332V58.9141H183.708V53.5332C183.708 53.1751 183.871 52.9961 184.196 52.9961H185.095C185.42 52.9961 185.583 53.1751 185.583 53.5332V66.4629C185.583 66.821 185.42 67 185.095 67H184.196C183.871 67 183.708 66.821 183.708 66.4629V60.5156H176.892V66.4629C176.892 66.821 176.729 67 176.403 67H175.505ZM188.073 61.873C188.073 60.3431 188.477 59.0801 189.284 58.084C190.098 57.0814 191.286 56.5801 192.849 56.5801C194.411 56.5801 195.596 57.0814 196.403 58.084C197.217 59.0801 197.624 60.3431 197.624 61.873C197.624 63.403 197.217 64.6693 196.403 65.6719C195.596 66.668 194.411 67.166 192.849 67.166C191.286 67.166 190.098 66.668 189.284 65.6719C188.477 64.6693 188.073 63.403 188.073 61.873ZM189.89 61.873C189.89 63.2402 190.16 64.2526 190.7 64.9102C191.241 65.5677 191.957 65.8965 192.849 65.8965C193.741 65.8965 194.457 65.5677 194.997 64.9102C195.537 64.2526 195.808 63.2402 195.808 61.873C195.808 60.5059 195.537 59.4935 194.997 58.8359C194.457 58.1784 193.741 57.8496 192.849 57.8496C191.957 57.8496 191.241 58.1784 190.7 58.8359C190.16 59.4935 189.89 60.5059 189.89 61.873ZM199.44 66.043C199.239 65.8542 199.196 65.6784 199.313 65.5156L199.753 64.9004C199.896 64.7051 200.108 64.7148 200.388 64.9297C200.772 65.2227 201.198 65.457 201.667 65.6328C202.142 65.8086 202.683 65.8965 203.288 65.8965C203.646 65.8965 203.965 65.8542 204.245 65.7695C204.525 65.6784 204.769 65.5124 204.978 65.2715C205.192 65.0306 205.3 64.7083 205.3 64.3047C205.3 64.0703 205.248 63.849 205.144 63.6406C205.046 63.4323 204.89 63.2663 204.675 63.1426C204.466 63.0124 204.261 62.9115 204.06 62.8398C203.728 62.7161 203.396 62.6152 203.063 62.5371C202.738 62.4525 202.308 62.3255 201.774 62.1562C201.416 62.0456 201.078 61.8893 200.759 61.6875C200.44 61.4792 200.16 61.1992 199.919 60.8477C199.685 60.4961 199.567 60.0111 199.567 59.3926C199.567 58.7611 199.759 58.2174 200.144 57.7617C200.528 57.306 201.009 56.9967 201.589 56.834C202.168 56.6647 202.731 56.5801 203.278 56.5801C204.086 56.5801 204.733 56.6745 205.222 56.8633C205.716 57.0456 206.143 57.2637 206.501 57.5176C206.709 57.6673 206.739 57.8398 206.589 58.0352L206.149 58.6211C206.013 58.8099 205.801 58.8034 205.515 58.6016C205.274 58.4323 204.932 58.2728 204.489 58.123C204.047 57.9733 203.659 57.8984 203.327 57.8984C202.917 57.8984 202.565 57.944 202.272 58.0352C201.979 58.1263 201.742 58.2826 201.56 58.5039C201.377 58.7253 201.286 58.9857 201.286 59.2852C201.286 59.513 201.322 59.7181 201.394 59.9004C201.465 60.0762 201.599 60.2389 201.794 60.3887C201.989 60.5384 202.263 60.6589 202.614 60.75C203.161 60.8932 203.659 61.0234 204.108 61.1406C204.564 61.2578 204.974 61.401 205.339 61.5703C205.814 61.7917 206.179 62.0358 206.433 62.3027C206.693 62.5697 206.872 62.8594 206.97 63.1719C207.067 63.4779 207.116 63.8197 207.116 64.1973C207.116 64.8939 206.908 65.4831 206.491 65.9648C206.081 66.4466 205.622 66.7689 205.114 66.9316C204.606 67.0879 203.994 67.166 203.278 67.166C202.308 67.166 201.475 67.0293 200.778 66.7559C200.088 66.4759 199.642 66.2383 199.44 66.043ZM209.499 70.9062C209.206 70.9062 209.06 70.7598 209.06 70.4668V57.1855C209.06 56.8926 209.206 56.7461 209.499 56.7461H210.319C210.554 56.7461 210.681 56.8926 210.7 57.1855L210.759 57.9668H210.778C211.136 57.5371 211.54 57.1986 211.989 56.9512C212.438 56.7038 213.037 56.5801 213.786 56.5801C215.088 56.5801 216.078 57.1139 216.755 58.1816C217.432 59.2428 217.771 60.4733 217.771 61.873C217.771 63.2728 217.432 64.5065 216.755 65.5742C216.078 66.6354 215.088 67.166 213.786 67.166C213.037 67.166 212.438 67.0423 211.989 66.7949C211.54 66.5475 211.136 66.209 210.778 65.7793H210.759C210.772 65.9746 210.778 66.1732 210.778 66.375V70.4668C210.778 70.7598 210.632 70.9062 210.339 70.9062H209.499ZM210.778 62.9961C210.778 63.9727 211.009 64.7018 211.472 65.1836C211.94 65.6589 212.526 65.8965 213.229 65.8965C214.219 65.8965 214.919 65.5254 215.329 64.7832C215.746 64.041 215.954 63.071 215.954 61.873C215.954 60.6751 215.746 59.7051 215.329 58.9629C214.919 58.2207 214.219 57.8496 213.229 57.8496C212.526 57.8496 211.94 58.0905 211.472 58.5723C211.009 59.0475 210.778 59.7734 210.778 60.75V62.9961ZM220.437 67C220.144 67 219.997 66.8535 219.997 66.5605V57.1855C219.997 56.8926 220.144 56.7461 220.437 56.7461H221.276C221.569 56.7461 221.716 56.8926 221.716 57.1855V66.5605C221.716 66.8535 221.569 67 221.276 67H220.437ZM220.437 54.8906C220.144 54.8906 219.997 54.7441 219.997 54.4512V53.6113C219.997 53.3184 220.144 53.1719 220.437 53.1719H221.276C221.569 53.1719 221.716 53.3184 221.716 53.6113V54.4512C221.716 54.7441 221.569 54.8906 221.276 54.8906H220.437ZM223.991 58.0352C223.698 58.0352 223.552 57.9212 223.552 57.6934V57.0879C223.552 56.86 223.698 56.7461 223.991 56.7461H225.144V55.8672C225.144 55.737 225.176 55.6133 225.241 55.4961L225.925 54.2559C226.049 54.028 226.149 53.9141 226.228 53.9141H226.569C226.765 53.9141 226.862 54.028 226.862 54.2559V56.7461H228.942C229.235 56.7461 229.382 56.86 229.382 57.0879V57.6934C229.382 57.9212 229.235 58.0352 228.942 58.0352H226.862V64.2559C226.862 64.9395 226.963 65.3854 227.165 65.5938C227.373 65.7956 227.621 65.8965 227.907 65.8965C228.129 65.8965 228.392 65.8314 228.698 65.7012C229.011 65.571 229.226 65.4603 229.343 65.3691C229.46 65.278 229.551 65.3073 229.616 65.457L229.938 66.209C229.991 66.3392 229.951 66.4434 229.821 66.5215C229.567 66.6712 229.196 66.8177 228.708 66.9609C228.22 67.0977 227.731 67.166 227.243 67.166C226.566 67.166 226.045 66.9219 225.681 66.4336C225.323 65.9453 225.144 65.2552 225.144 64.3633V58.0352H223.991ZM231.335 64.2656C231.335 63.1068 231.875 62.2572 232.956 61.7168C234.043 61.1764 235.664 60.8607 237.819 60.7695V60.1055C237.819 59.4935 237.679 58.9661 237.399 58.5234C237.126 58.0742 236.579 57.8496 235.759 57.8496C235.238 57.8496 234.821 57.9017 234.509 58.0059C234.196 58.1035 233.91 58.237 233.649 58.4062C233.396 58.569 233.151 58.7806 232.917 59.041C232.741 59.2363 232.575 59.2461 232.419 59.0703L231.911 58.4844C231.768 58.3216 231.817 58.1263 232.058 57.8984C232.403 57.5729 232.738 57.3288 233.063 57.166C233.389 57.0033 233.793 56.8665 234.274 56.7559C234.763 56.6387 235.257 56.5801 235.759 56.5801C237.119 56.5801 238.09 56.9316 238.669 57.6348C239.248 58.3314 239.538 59.2884 239.538 60.5059V66.5605C239.538 66.8535 239.392 67 239.099 67H238.22C237.966 67 237.839 66.8535 237.839 66.5605V66.082H237.819C237.305 66.4857 236.8 66.7689 236.306 66.9316C235.817 67.0879 235.271 67.166 234.665 67.166C233.597 67.166 232.774 66.9121 232.194 66.4043C231.621 65.89 231.335 65.1771 231.335 64.2656ZM233.112 64.3047C233.112 64.7083 233.197 65.0339 233.366 65.2812C233.535 65.5221 233.77 65.6784 234.069 65.75C234.369 65.8151 234.681 65.8477 235.007 65.8477C235.508 65.8477 235.983 65.7988 236.433 65.7012C236.882 65.6035 237.344 65.3464 237.819 64.9297V62.0488C236.504 62.1465 235.567 62.2669 235.007 62.4102C234.447 62.5469 233.991 62.7878 233.64 63.1328C233.288 63.4714 233.112 63.862 233.112 64.3047ZM242.761 67C242.468 67 242.321 66.8535 242.321 66.5605V54.373C242.321 54.2428 242.354 54.1191 242.419 54.002L243.103 52.7617C243.226 52.5339 243.327 52.4199 243.405 52.4199H243.747C243.942 52.4199 244.04 52.5339 244.04 52.7617V66.5605C244.04 66.8535 243.894 67 243.601 67H242.761Z" fill="black"/>
<rect x="27.5" y="108.5" width="88" height="34.2622" rx="17.1311" fill="white" stroke="black"/>
<path d="M61.3242 131C60.9857 131 60.8978 130.785 61.0605 130.355L65.9238 117.592C66.0736 117.195 66.2884 116.996 66.5684 116.996H67.9355C68.2155 116.996 68.4303 117.195 68.5801 117.592L73.4434 130.355C73.6061 130.785 73.5182 131 73.1797 131H72.1836C71.8385 131 71.6042 130.84 71.4805 130.521L70.2598 127.289H64.2441L63.0234 130.521C62.8997 130.84 62.6654 131 62.3203 131H61.3242ZM64.8594 125.688H69.6445L68.1504 121.781C68.0137 121.417 67.877 121.013 67.7402 120.57C67.61 120.128 67.4538 119.499 67.2715 118.686H67.2324C67.0501 119.499 66.8906 120.128 66.7539 120.57C66.6237 121.013 66.4902 121.417 66.3535 121.781L64.8594 125.688ZM75.4746 131C75.1816 131 75.0352 130.854 75.0352 130.561V118.373C75.0352 118.243 75.0677 118.119 75.1328 118.002L75.8164 116.762C75.9401 116.534 76.041 116.42 76.1191 116.42H76.4609C76.6562 116.42 76.7539 116.534 76.7539 116.762V130.561C76.7539 130.854 76.6074 131 76.3145 131H75.4746ZM79.9668 131C79.6738 131 79.5273 130.854 79.5273 130.561V118.373C79.5273 118.243 79.5599 118.119 79.625 118.002L80.3086 116.762C80.4323 116.534 80.5332 116.42 80.6113 116.42H80.9531C81.1484 116.42 81.2461 116.534 81.2461 116.762V130.561C81.2461 130.854 81.0996 131 80.8066 131H79.9668Z" fill="black"/>
<rect x="130.5" y="108.5" width="134" height="34.2622" rx="17.1311" fill="white" stroke="black"/>
<path d="M163.835 123.998C163.835 121.719 164.425 119.936 165.603 118.646C166.781 117.351 168.419 116.703 170.515 116.703C171.772 116.703 172.797 116.921 173.591 117.357C174.385 117.787 174.968 118.295 175.339 118.881C175.567 119.245 175.564 119.509 175.33 119.672L174.597 120.18C174.356 120.349 174.115 120.248 173.874 119.877C173.679 119.584 173.311 119.236 172.771 118.832C172.231 118.428 171.511 118.227 170.613 118.227C169.018 118.227 167.823 118.734 167.029 119.75C166.234 120.759 165.837 122.175 165.837 123.998C165.837 125.821 166.225 127.24 166.999 128.256C167.774 129.265 169.011 129.77 170.71 129.77C171.557 129.77 172.292 129.669 172.917 129.467C173.549 129.258 173.992 128.972 174.246 128.607V126.02H171.345C170.987 126.02 170.808 125.873 170.808 125.58V124.857C170.808 124.564 170.987 124.418 171.345 124.418H175.583C175.941 124.418 176.121 124.564 176.121 124.857V129.467C175.326 130.046 174.532 130.495 173.738 130.814C172.943 131.133 171.902 131.293 170.613 131.293C168.464 131.293 166.798 130.648 165.613 129.359C164.428 128.064 163.835 126.277 163.835 123.998ZM178.122 125.873C178.122 124.258 178.526 122.973 179.333 122.016C180.141 121.059 181.296 120.58 182.8 120.58C184.05 120.58 185.085 121.02 185.906 121.898C186.733 122.771 187.146 124.167 187.146 126.088C187.146 126.381 187.012 126.527 186.746 126.527H179.939C180.05 127.784 180.388 128.66 180.955 129.154C181.521 129.643 182.162 129.887 182.878 129.887C183.634 129.887 184.213 129.76 184.617 129.506C185.02 129.252 185.316 129.001 185.505 128.754C185.714 128.48 185.915 128.428 186.111 128.598L186.687 129.096C186.837 129.226 186.837 129.405 186.687 129.633C186.563 129.822 186.208 130.124 185.622 130.541C185.043 130.958 184.128 131.166 182.878 131.166C181.251 131.166 180.05 130.688 179.275 129.73C178.507 128.773 178.122 127.488 178.122 125.873ZM179.9 125.258H185.417C185.391 124.346 185.157 123.549 184.714 122.865C184.272 122.175 183.621 121.83 182.761 121.83C182.006 121.83 181.365 122.084 180.837 122.592C180.31 123.093 179.997 123.982 179.9 125.258ZM189.841 131C189.548 131 189.402 130.854 189.402 130.561V121.186C189.402 120.893 189.548 120.746 189.841 120.746H190.662C190.955 120.746 191.101 120.893 191.101 121.186V121.967H191.14C191.563 121.498 192.019 121.15 192.507 120.922C192.996 120.694 193.604 120.58 194.333 120.58C195.518 120.58 196.368 120.915 196.882 121.586C197.403 122.25 197.663 123.161 197.663 124.32V130.561C197.663 130.854 197.517 131 197.224 131H196.384C196.091 131 195.945 130.854 195.945 130.561V124.789C195.945 123.513 195.733 122.706 195.31 122.367C194.887 122.022 194.35 121.85 193.699 121.85C192.852 121.85 192.211 122.104 191.775 122.611C191.339 123.113 191.121 123.975 191.121 125.199V130.561C191.121 130.854 190.974 131 190.681 131H189.841ZM199.861 125.873C199.861 124.258 200.264 122.973 201.072 122.016C201.879 121.059 203.035 120.58 204.538 120.58C205.788 120.58 206.824 121.02 207.644 121.898C208.471 122.771 208.884 124.167 208.884 126.088C208.884 126.381 208.751 126.527 208.484 126.527H201.677C201.788 127.784 202.126 128.66 202.693 129.154C203.259 129.643 203.9 129.887 204.617 129.887C205.372 129.887 205.951 129.76 206.355 129.506C206.759 129.252 207.055 129.001 207.244 128.754C207.452 128.48 207.654 128.428 207.849 128.598L208.425 129.096C208.575 129.226 208.575 129.405 208.425 129.633C208.302 129.822 207.947 130.124 207.361 130.541C206.781 130.958 205.867 131.166 204.617 131.166C202.989 131.166 201.788 130.688 201.013 129.73C200.245 128.773 199.861 127.488 199.861 125.873ZM201.638 125.258H207.156C207.13 124.346 206.895 123.549 206.453 122.865C206.01 122.175 205.359 121.83 204.499 121.83C203.744 121.83 203.103 122.084 202.576 122.592C202.048 123.093 201.736 123.982 201.638 125.258ZM211.58 131C211.287 131 211.14 130.854 211.14 130.561V121.186C211.14 120.893 211.287 120.746 211.58 120.746H212.4C212.693 120.746 212.839 120.893 212.839 121.186V122.357H212.878C213.191 121.771 213.559 121.329 213.982 121.029C214.405 120.73 214.932 120.58 215.564 120.58C215.981 120.58 216.274 120.616 216.443 120.688C216.593 120.746 216.648 120.844 216.609 120.98L216.384 121.781C216.352 121.898 216.267 121.944 216.13 121.918C215.902 121.872 215.688 121.85 215.486 121.85C214.724 121.85 214.096 122.195 213.601 122.885C213.106 123.568 212.859 124.503 212.859 125.688V130.561C212.859 130.854 212.712 131 212.419 131H211.58ZM217.634 128.266C217.634 127.107 218.175 126.257 219.255 125.717C220.343 125.176 221.964 124.861 224.119 124.77V124.105C224.119 123.493 223.979 122.966 223.699 122.523C223.425 122.074 222.878 121.85 222.058 121.85C221.537 121.85 221.121 121.902 220.808 122.006C220.496 122.104 220.209 122.237 219.949 122.406C219.695 122.569 219.451 122.781 219.216 123.041C219.04 123.236 218.874 123.246 218.718 123.07L218.21 122.484C218.067 122.322 218.116 122.126 218.357 121.898C218.702 121.573 219.037 121.329 219.363 121.166C219.688 121.003 220.092 120.867 220.574 120.756C221.062 120.639 221.557 120.58 222.058 120.58C223.419 120.58 224.389 120.932 224.968 121.635C225.548 122.331 225.837 123.288 225.837 124.506V130.561C225.837 130.854 225.691 131 225.398 131H224.519C224.265 131 224.138 130.854 224.138 130.561V130.082H224.119C223.604 130.486 223.1 130.769 222.605 130.932C222.117 131.088 221.57 131.166 220.964 131.166C219.897 131.166 219.073 130.912 218.494 130.404C217.921 129.89 217.634 129.177 217.634 128.266ZM219.412 128.305C219.412 128.708 219.496 129.034 219.665 129.281C219.835 129.522 220.069 129.678 220.369 129.75C220.668 129.815 220.981 129.848 221.306 129.848C221.807 129.848 222.283 129.799 222.732 129.701C223.181 129.604 223.643 129.346 224.119 128.93V126.049C222.803 126.146 221.866 126.267 221.306 126.41C220.746 126.547 220.29 126.788 219.939 127.133C219.587 127.471 219.412 127.862 219.412 128.305ZM229.06 131C228.767 131 228.621 130.854 228.621 130.561V118.373C228.621 118.243 228.653 118.119 228.718 118.002L229.402 116.762C229.525 116.534 229.626 116.42 229.705 116.42H230.046C230.242 116.42 230.339 116.534 230.339 116.762V130.561C230.339 130.854 230.193 131 229.9 131H229.06Z" fill="black"/>
<rect x="279.5" y="108.5" width="130" height="34.2622" rx="17.1311" fill="white" stroke="black"/>
<path d="M314.791 131C314.465 131 314.302 130.821 314.302 130.463V117.533C314.302 117.175 314.465 116.996 314.791 116.996H318.394C321.155 116.996 323.072 117.608 324.146 118.832C325.227 120.049 325.767 121.765 325.767 123.979C325.767 126.192 325.227 127.917 324.146 129.154C323.072 130.385 321.155 131 318.394 131H314.791ZM316.177 129.398H318.306C320.455 129.398 321.9 128.943 322.642 128.031C323.391 127.12 323.765 125.769 323.765 123.979C323.765 122.188 323.391 120.84 322.642 119.936C321.9 119.031 320.455 118.578 318.306 118.578H316.177V129.398ZM327.496 125.873C327.496 124.258 327.899 122.973 328.707 122.016C329.514 121.059 330.67 120.58 332.173 120.58C333.423 120.58 334.459 121.02 335.279 121.898C336.106 122.771 336.519 124.167 336.519 126.088C336.519 126.381 336.386 126.527 336.119 126.527H329.312C329.423 127.784 329.761 128.66 330.328 129.154C330.894 129.643 331.535 129.887 332.252 129.887C333.007 129.887 333.586 129.76 333.99 129.506C334.394 129.252 334.69 129.001 334.879 128.754C335.087 128.48 335.289 128.428 335.484 128.598L336.06 129.096C336.21 129.226 336.21 129.405 336.06 129.633C335.937 129.822 335.582 130.124 334.996 130.541C334.416 130.958 333.502 131.166 332.252 131.166C330.624 131.166 329.423 130.688 328.648 129.73C327.88 128.773 327.496 127.488 327.496 125.873ZM329.273 125.258H334.791C334.765 124.346 334.53 123.549 334.088 122.865C333.645 122.175 332.994 121.83 332.134 121.83C331.379 121.83 330.738 122.084 330.211 122.592C329.683 123.093 329.371 123.982 329.273 125.258ZM339.214 131C338.922 131 338.775 130.854 338.775 130.561V121.186C338.775 120.893 338.922 120.746 339.214 120.746H340.035C340.328 120.746 340.474 120.893 340.474 121.186V121.967H340.513C340.937 121.498 341.392 121.15 341.881 120.922C342.369 120.694 342.978 120.58 343.707 120.58C344.892 120.58 345.741 120.915 346.256 121.586C346.776 122.25 347.037 123.161 347.037 124.32V130.561C347.037 130.854 346.89 131 346.597 131H345.757C345.464 131 345.318 130.854 345.318 130.561V124.789C345.318 123.513 345.106 122.706 344.683 122.367C344.26 122.022 343.723 121.85 343.072 121.85C342.226 121.85 341.584 122.104 341.148 122.611C340.712 123.113 340.494 123.975 340.494 125.199V130.561C340.494 130.854 340.347 131 340.054 131H339.214ZM349.293 122.035C349 122.035 348.853 121.921 348.853 121.693V121.088C348.853 120.86 349 120.746 349.293 120.746H350.445V119.867C350.445 119.737 350.478 119.613 350.543 119.496L351.226 118.256C351.35 118.028 351.451 117.914 351.529 117.914H351.871C352.066 117.914 352.164 118.028 352.164 118.256V120.746H354.244C354.537 120.746 354.683 120.86 354.683 121.088V121.693C354.683 121.921 354.537 122.035 354.244 122.035H352.164V128.256C352.164 128.939 352.265 129.385 352.466 129.594C352.675 129.796 352.922 129.896 353.209 129.896C353.43 129.896 353.694 129.831 354 129.701C354.312 129.571 354.527 129.46 354.644 129.369C354.761 129.278 354.853 129.307 354.918 129.457L355.24 130.209C355.292 130.339 355.253 130.443 355.123 130.521C354.869 130.671 354.498 130.818 354.009 130.961C353.521 131.098 353.033 131.166 352.545 131.166C351.867 131.166 351.347 130.922 350.982 130.434C350.624 129.945 350.445 129.255 350.445 128.363V122.035H349.293ZM357.632 131C357.339 131 357.193 130.854 357.193 130.561V121.186C357.193 120.893 357.339 120.746 357.632 120.746H358.472C358.765 120.746 358.912 120.893 358.912 121.186V130.561C358.912 130.854 358.765 131 358.472 131H357.632ZM357.632 118.891C357.339 118.891 357.193 118.744 357.193 118.451V117.611C357.193 117.318 357.339 117.172 357.632 117.172H358.472C358.765 117.172 358.912 117.318 358.912 117.611V118.451C358.912 118.744 358.765 118.891 358.472 118.891H357.632ZM361.285 130.043C361.083 129.854 361.041 129.678 361.158 129.516L361.597 128.9C361.741 128.705 361.952 128.715 362.232 128.93C362.616 129.223 363.043 129.457 363.511 129.633C363.987 129.809 364.527 129.896 365.132 129.896C365.491 129.896 365.81 129.854 366.089 129.77C366.369 129.678 366.614 129.512 366.822 129.271C367.037 129.031 367.144 128.708 367.144 128.305C367.144 128.07 367.092 127.849 366.988 127.641C366.89 127.432 366.734 127.266 366.519 127.143C366.311 127.012 366.106 126.911 365.904 126.84C365.572 126.716 365.24 126.615 364.908 126.537C364.582 126.452 364.153 126.326 363.619 126.156C363.261 126.046 362.922 125.889 362.603 125.688C362.284 125.479 362.004 125.199 361.763 124.848C361.529 124.496 361.412 124.011 361.412 123.393C361.412 122.761 361.604 122.217 361.988 121.762C362.372 121.306 362.854 120.997 363.433 120.834C364.013 120.665 364.576 120.58 365.123 120.58C365.93 120.58 366.578 120.674 367.066 120.863C367.561 121.046 367.987 121.264 368.345 121.518C368.554 121.667 368.583 121.84 368.433 122.035L367.994 122.621C367.857 122.81 367.645 122.803 367.359 122.602C367.118 122.432 366.776 122.273 366.334 122.123C365.891 121.973 365.504 121.898 365.172 121.898C364.761 121.898 364.41 121.944 364.117 122.035C363.824 122.126 363.586 122.283 363.404 122.504C363.222 122.725 363.131 122.986 363.131 123.285C363.131 123.513 363.166 123.718 363.238 123.9C363.31 124.076 363.443 124.239 363.638 124.389C363.834 124.538 364.107 124.659 364.459 124.75C365.006 124.893 365.504 125.023 365.953 125.141C366.409 125.258 366.819 125.401 367.183 125.57C367.659 125.792 368.023 126.036 368.277 126.303C368.537 126.57 368.716 126.859 368.814 127.172C368.912 127.478 368.961 127.82 368.961 128.197C368.961 128.894 368.752 129.483 368.336 129.965C367.925 130.447 367.466 130.769 366.959 130.932C366.451 131.088 365.839 131.166 365.123 131.166C364.153 131.166 363.319 131.029 362.623 130.756C361.933 130.476 361.487 130.238 361.285 130.043ZM370.406 122.035C370.113 122.035 369.966 121.921 369.966 121.693V121.088C369.966 120.86 370.113 120.746 370.406 120.746H371.558V119.867C371.558 119.737 371.591 119.613 371.656 119.496L372.339 118.256C372.463 118.028 372.564 117.914 372.642 117.914H372.984C373.179 117.914 373.277 118.028 373.277 118.256V120.746H375.357C375.65 120.746 375.797 120.86 375.797 121.088V121.693C375.797 121.921 375.65 122.035 375.357 122.035H373.277V128.256C373.277 128.939 373.378 129.385 373.58 129.594C373.788 129.796 374.035 129.896 374.322 129.896C374.543 129.896 374.807 129.831 375.113 129.701C375.425 129.571 375.64 129.46 375.757 129.369C375.875 129.278 375.966 129.307 376.031 129.457L376.353 130.209C376.405 130.339 376.366 130.443 376.236 130.521C375.982 130.671 375.611 130.818 375.123 130.961C374.634 131.098 374.146 131.166 373.658 131.166C372.981 131.166 372.46 130.922 372.095 130.434C371.737 129.945 371.558 129.255 371.558 128.363V122.035H370.406Z" fill="black"/>
<circle cx="252.415" cy="397.976" r="18.5366" transform="rotate(90 252.415 397.976)" fill="#72B6C9"/>
<circle cx="231.561" cy="363.22" r="16.2195" transform="rotate(90 231.561 363.22)" fill="#72B6C9"/>
<circle cx="196.805" cy="365.537" r="13.9024" transform="rotate(90 196.805 365.537)" fill="#72B6C9"/>
<circle cx="180.586" cy="397.975" r="11.5854" transform="rotate(90 180.586 397.975)" fill="#72B6C9"/>
<circle cx="192.171" cy="425.78" r="9.26829" transform="rotate(90 192.171 425.78)" fill="#72B6C9"/>
<circle cx="217.659" cy="435.049" r="6.95122" transform="rotate(90 217.659 435.049)" fill="#72B6C9"/>
<circle cx="238.512" cy="428.098" r="4.63415" transform="rotate(90 238.512 428.098)" fill="#72B6C9"/>
<path d="M0 627C0 615.954 8.95431 607 20 607H420C431.046 607 440 615.954 440 627V956H0L0 627Z" fill="url(#paint0_linear_1_20896)"/>
<path d="M72.2529 637H73.7471V625.022H72.2529V637Z" fill="black"/>
<rect opacity="0.1" x="146" y="618.5" width="1" height="25" fill="black"/>
<path d="M209.392 637H210.886V626.367H214.746V625.022H205.532V626.367H209.392V637ZM216.954 637H218.398V631.704C218.398 630.135 219.303 629.172 220.73 629.172C222.158 629.172 222.822 629.944 222.822 631.555V637H224.267V631.206C224.267 629.081 223.146 627.894 221.137 627.894C219.817 627.894 218.979 628.45 218.531 629.396H218.398V624.499H216.954V637ZM230.534 637.158C232.642 637.158 233.92 635.962 234.228 634.75L234.244 634.684H232.8L232.767 634.759C232.526 635.298 231.779 635.871 230.567 635.871C228.973 635.871 227.952 634.792 227.911 632.941H234.352V632.376C234.352 629.704 232.875 627.894 230.442 627.894C228.01 627.894 226.433 629.787 226.433 632.551V632.559C226.433 635.365 227.977 637.158 230.534 637.158ZM230.434 629.181C231.754 629.181 232.733 630.019 232.883 631.787H227.936C228.093 630.085 229.106 629.181 230.434 629.181Z" fill="black"/>
<rect opacity="0.1" x="293" y="618.5" width="1" height="25" fill="black"/>
<path d="M362.119 637.282C365.182 637.282 367.208 635.323 367.208 632.368V630.907H362.352V632.219H365.713V632.509C365.713 634.535 364.269 635.904 362.127 635.904C359.72 635.904 358.218 634.028 358.218 631.015V630.999C358.218 628.027 359.745 626.118 362.119 626.118C363.904 626.118 365.107 626.964 365.597 628.508L365.622 628.591H367.133L367.116 628.508C366.643 626.234 364.775 624.74 362.119 624.74C358.84 624.74 356.69 627.222 356.69 630.999V631.015C356.69 634.842 358.807 637.282 362.119 637.282ZM373.35 637.158C375.898 637.158 377.476 635.398 377.476 632.534V632.518C377.476 629.646 375.898 627.894 373.35 627.894C370.802 627.894 369.225 629.646 369.225 632.518V632.534C369.225 635.398 370.802 637.158 373.35 637.158ZM373.35 635.879C371.657 635.879 370.702 634.643 370.702 632.534V632.518C370.702 630.401 371.657 629.172 373.35 629.172C375.043 629.172 375.998 630.401 375.998 632.518V632.534C375.998 634.643 375.043 635.879 373.35 635.879Z" fill="black"/>
<g filter="url(#filter1_d_1_20896)">
<rect x="4" y="659" width="38" height="44" rx="5" fill="white" shape-rendering="crispEdges"/>
<path d="M22.938 689H24.9595V672.794H22.9492L18.6367 675.894V678.028L22.7583 675.041H22.938V689Z" fill="black"/>
</g>
<g filter="url(#filter2_d_1_20896)">
<rect x="48" y="659" width="37" height="44" rx="5" fill="white" shape-rendering="crispEdges"/>
<path d="M60.8677 689H71.3569V687.181H63.6753V687.001L67.3589 683.194C70.29 680.173 71.0874 678.825 71.0874 676.972V676.95C71.0874 674.333 68.9199 672.413 66.0898 672.413C62.9902 672.413 60.7666 674.479 60.7554 677.354L60.7778 677.365L62.7095 677.376L62.7207 677.354C62.7207 675.445 64.0122 674.176 65.9551 674.176C67.8643 674.176 69.021 675.456 69.021 677.163V677.186C69.021 678.601 68.4146 679.443 66.3481 681.678L60.8677 687.607V689Z" fill="black"/>
</g>
<g filter="url(#filter3_d_1_20896)">
<rect x="91" y="659" width="39" height="44" rx="5" fill="white" shape-rendering="crispEdges"/>
<path d="M109.612 689.27C112.858 689.27 115.239 687.271 115.239 684.564V684.542C115.239 682.239 113.633 680.768 111.274 680.566V680.521C113.296 680.094 114.711 678.724 114.711 676.725V676.703C114.711 674.243 112.678 672.525 109.59 672.525C106.558 672.525 104.469 674.288 104.21 676.927L104.199 677.04H106.142L106.153 676.927C106.322 675.288 107.681 674.277 109.59 674.277C111.566 674.277 112.678 675.254 112.678 676.95V676.972C112.678 678.589 111.331 679.78 109.399 679.78H107.456V681.487H109.489C111.757 681.487 113.184 682.599 113.184 684.586V684.609C113.184 686.327 111.735 687.518 109.612 687.518C107.456 687.518 105.985 686.417 105.828 684.822L105.816 684.71H103.874L103.885 684.845C104.098 687.405 106.266 689.27 109.612 689.27Z" fill="black"/>
</g>
<g filter="url(#filter4_d_1_20896)">
<rect x="136" y="659" width="37" height="44" rx="5" fill="white" shape-rendering="crispEdges"/>
<path d="M155.808 689H157.785V685.642H160.087V683.834H157.785V672.794H154.854C152.585 676.175 150.103 680.128 147.913 683.8V685.642H155.808V689ZM149.979 683.845V683.71C151.743 680.734 153.865 677.388 155.685 674.67H155.819V683.845H149.979Z" fill="black"/>
</g>
<g filter="url(#filter5_d_1_20896)">
<rect x="179" y="659" width="38" height="44" rx="5" fill="white" shape-rendering="crispEdges"/>
<path d="M197.522 689.382C200.813 689.382 203.16 687.102 203.16 683.834V683.812C203.16 680.678 200.97 678.398 197.927 678.398C196.456 678.398 195.187 678.994 194.468 680.083H194.288L194.838 674.603H202.262V672.794H193.244L192.39 682.104H194.142C194.344 681.723 194.603 681.408 194.883 681.139C195.58 680.476 196.5 680.15 197.579 680.15C199.679 680.15 201.184 681.689 201.184 683.845V683.868C201.184 686.058 199.701 687.596 197.545 687.596C195.647 687.596 194.243 686.361 194.052 684.811L194.041 684.721H192.098L192.109 684.845C192.345 687.439 194.501 689.382 197.522 689.382Z" fill="black"/>
</g>
<g filter="url(#filter6_d_1_20896)">
<rect x="223" y="659" width="38" height="44" rx="5" fill="white" shape-rendering="crispEdges"/>
<path d="M241.713 689.382C244.981 689.382 247.385 687.035 247.385 683.8V683.778C247.385 680.667 245.116 678.354 242.073 678.354C239.883 678.354 238.355 679.533 237.76 680.858H237.547C237.547 680.734 237.547 680.6 237.558 680.476C237.682 677.096 238.883 674.221 241.826 674.221C243.465 674.221 244.6 675.063 245.094 676.422L245.139 676.545H247.171L247.138 676.399C246.587 674.007 244.566 672.413 241.848 672.413C237.917 672.413 235.615 675.647 235.615 681.172V681.195C235.615 687.293 238.749 689.382 241.713 689.382ZM238.03 683.778V683.767C238.03 681.655 239.625 680.117 241.725 680.117C243.825 680.117 245.352 681.667 245.352 683.823V683.845C245.352 685.945 243.724 687.596 241.691 687.596C239.636 687.596 238.03 685.912 238.03 683.778Z" fill="black"/>
</g>
<g filter="url(#filter7_d_1_20896)">
<rect x="267" y="659" width="37" height="44" rx="5" fill="white" shape-rendering="crispEdges"/>
<path d="M280.935 689H283.057L290.267 674.67V672.794H279.542V674.603H288.212V674.76L280.935 689Z" fill="black"/>
</g>
<g filter="url(#filter8_d_1_20896)">
<rect x="310" y="659" width="39" height="44" rx="5" fill="white" shape-rendering="crispEdges"/>
<path d="M328.5 689.27C331.937 689.27 334.385 687.338 334.385 684.62V684.598C334.385 682.599 332.981 680.937 330.903 680.454V680.409C332.678 679.858 333.801 678.511 333.801 676.804V676.781C333.801 674.333 331.566 672.525 328.5 672.525C325.434 672.525 323.199 674.333 323.199 676.781V676.804C323.199 678.511 324.322 679.858 326.097 680.409V680.454C324.019 680.937 322.615 682.599 322.615 684.598V684.62C322.615 687.338 325.063 689.27 328.5 689.27ZM328.5 679.656C326.546 679.656 325.209 678.544 325.209 676.972V676.95C325.209 675.377 326.546 674.266 328.5 674.266C330.454 674.266 331.791 675.377 331.791 676.95V676.972C331.791 678.544 330.454 679.656 328.5 679.656ZM328.5 687.506C326.265 687.506 324.67 686.249 324.67 684.497V684.474C324.67 682.7 326.254 681.431 328.5 681.431C330.746 681.431 332.33 682.7 332.33 684.474V684.497C332.33 686.249 330.735 687.506 328.5 687.506Z" fill="black"/>
</g>
<g filter="url(#filter9_d_1_20896)">
<rect x="355" y="659" width="37" height="44" rx="5" fill="white" shape-rendering="crispEdges"/>
<path d="M372.787 672.413C369.519 672.413 367.115 674.76 367.115 677.994V678.017C367.115 681.127 369.384 683.441 372.427 683.441C374.617 683.441 376.145 682.262 376.74 680.937H376.953C376.953 681.06 376.953 681.195 376.942 681.318C376.818 684.699 375.617 687.574 372.674 687.574C371.035 687.574 369.9 686.731 369.406 685.373L369.361 685.249H367.329L367.362 685.395C367.913 687.787 369.934 689.382 372.652 689.382C376.583 689.382 378.885 686.147 378.885 680.622V680.6C378.885 674.501 375.751 672.413 372.787 672.413ZM372.775 681.678C370.675 681.678 369.148 680.128 369.148 677.972V677.949C369.148 675.849 370.776 674.198 372.809 674.198C374.864 674.198 376.47 675.883 376.47 678.017V678.028C376.47 680.139 374.875 681.678 372.775 681.678Z" fill="black"/>
</g>
<g filter="url(#filter10_d_1_20896)">
<rect x="398" y="659" width="38" height="44" rx="5" fill="white" shape-rendering="crispEdges"/>
<path d="M416.489 689.382C420.071 689.382 422.228 686.114 422.228 680.903V680.88C422.228 675.669 420.071 672.413 416.489 672.413C412.906 672.413 410.772 675.669 410.772 680.88V680.903C410.772 686.114 412.906 689.382 416.489 689.382ZM416.489 687.619C414.164 687.619 412.805 685.036 412.805 680.903V680.88C412.805 676.748 414.164 674.187 416.489 674.187C418.813 674.187 420.195 676.748 420.195 680.88V680.903C420.195 685.036 418.813 687.619 416.489 687.619Z" fill="black"/>
</g>
<g filter="url(#filter11_d_1_20896)">
<rect x="26" y="715" width="44" height="44" rx="5" fill="white" shape-rendering="crispEdges"/>
<path d="M46.3486 746.628H47.6963V744.742C50.3467 744.528 52.5479 743.012 52.5479 740.317V740.294C52.5479 737.947 50.9307 736.757 48.0444 736.061L47.6963 735.982V730.827C49.2124 731.018 50.2905 731.95 50.4365 733.455V733.478L52.3906 733.466V733.455C52.3008 730.984 50.2905 729.3 47.6963 729.064V727.166H46.3486V729.064C43.687 729.311 41.7891 730.951 41.7891 733.354V733.376C41.7891 735.578 43.2939 736.824 46.0903 737.498L46.3486 737.565V742.967C44.3945 742.754 43.5298 741.642 43.3276 740.25V740.227L41.3735 740.238V740.25C41.4634 742.855 43.6758 744.483 46.3486 744.73V746.628ZM43.7432 733.242V733.219C43.7432 732.141 44.6416 731.063 46.3486 730.827V735.656C44.417 735.185 43.7432 734.331 43.7432 733.242ZM47.7637 737.902C49.9873 738.441 50.5938 739.228 50.5938 740.452V740.474C50.5938 741.766 49.7852 742.821 47.6963 742.99V737.891L47.7637 737.902Z" fill="black"/>
</g>
<g filter="url(#filter12_d_1_20896)">
<rect x="76" y="715" width="43" height="44" rx="5" fill="white" shape-rendering="crispEdges"/>
<path d="M96.5566 739.609H98.4209L98.6118 728.783H96.3657L96.5566 739.609ZM97.5 745.202C98.4097 745.202 99.0498 744.551 99.0498 743.641C99.0498 742.72 98.4097 742.069 97.5 742.069C96.5903 742.069 95.939 742.72 95.939 743.641C95.939 744.551 96.5903 745.202 97.5 745.202Z" fill="black"/>
</g>
<g filter="url(#filter13_d_1_20896)">
<rect x="125" y="715" width="43" height="44" rx="5" fill="white" shape-rendering="crispEdges"/>
<path d="M148.105 740.238C149.588 740.238 150.599 739.643 151.295 738.846V737.071C150.587 737.891 149.633 738.509 148.285 738.509C146.556 738.509 144.849 736.622 142.895 736.622C141.412 736.622 140.401 737.217 139.705 738.015V739.789C140.413 738.969 141.367 738.352 142.715 738.352C144.456 738.352 146.151 740.238 148.105 740.238Z" fill="black"/>
</g>
<g filter="url(#filter14_d_1_20896)">
<rect x="174" y="715" width="43" height="44" rx="5" fill="white" shape-rendering="crispEdges"/>
<path d="M193.585 745.303C195.876 745.303 197.628 744.607 198.886 743.417L200.323 745H202.861V744.989L200.031 741.968C200.941 740.44 201.379 738.475 201.379 736.263V735.971H199.492V736.251C199.492 737.835 199.223 739.306 198.65 740.497L194.674 736.251C197.246 734.881 198.178 733.668 198.178 732.074V732.051C198.178 729.94 196.438 728.413 194.045 728.413C191.676 728.413 189.913 729.962 189.913 732.029V732.051C189.913 733.163 190.44 734.151 191.957 735.836L191.361 736.128C189.171 737.206 188.104 738.7 188.104 740.665V740.688C188.104 743.394 190.362 745.303 193.585 745.303ZM191.844 732.164V732.141C191.844 730.895 192.765 730.019 194.057 730.019C195.371 730.019 196.28 730.872 196.28 732.119V732.141C196.28 733.23 195.629 734.05 193.596 735.106C192.305 733.702 191.844 733.006 191.844 732.164ZM190.126 740.553V740.53C190.126 739.194 190.979 738.06 192.529 737.318L193.068 737.06L197.617 742.035C196.696 743.012 195.416 743.596 193.765 743.596C191.597 743.596 190.126 742.361 190.126 740.553Z" fill="black"/>
</g>
<g filter="url(#filter15_d_1_20896)">
<rect x="223" y="715" width="44" height="44" rx="5" fill="white" shape-rendering="crispEdges"/>
<path d="M238.205 736.353H249.795V734.533H238.205V736.353ZM238.205 742.406H249.795V740.586H238.205V742.406Z" fill="black"/>
</g>
<g filter="url(#filter16_d_1_20896)">
<rect x="273" y="715" width="43" height="44" rx="5" fill="white" shape-rendering="crispEdges"/>
<path d="M290.906 745L291.827 740.474H295.522L294.59 745H296.196L297.128 740.474H300.059L300.374 738.857H297.454L298.296 734.769H301.104L301.418 733.163H298.622L299.52 728.794H297.914L297.016 733.163H293.321L294.219 728.794H292.625L291.726 733.163H288.941L288.615 734.769H291.4L290.569 738.857H287.908L287.593 740.474H290.232L289.312 745H290.906ZM292.164 738.857L292.995 734.769H296.69L295.859 738.857H292.164Z" fill="black"/>
</g>
<g filter="url(#filter17_d_1_20896)">
<rect x="322" y="715" width="43" height="44" rx="5" fill="white" shape-rendering="crispEdges"/>
<path d="M341.119 749.043H345.993V747.516H343.005V729.614H345.993V728.087H341.119V749.043Z" fill="black"/>
</g>
<g filter="url(#filter18_d_1_20896)">
<rect x="371" y="715" width="43" height="44" rx="5" fill="white" shape-rendering="crispEdges"/>
<path d="M393.381 749.043V728.087H388.507V729.614H391.495V747.516H388.507V749.043H393.381Z" fill="black"/>
</g>
<g filter="url(#filter19_d_1_20896)">
<rect x="4" y="771" width="44" height="44" rx="5" fill="#AEB3BE" shape-rendering="crispEdges"/>
<path d="M13.4219 799L14.0625 795.852H16.6328L15.9844 799H17.1016L17.75 795.852H19.7891L20.0078 794.727H17.9766L18.5625 791.883H20.5156L20.7344 790.766H18.7891L19.4141 787.727H18.2969L17.6719 790.766H15.1016L15.7266 787.727H14.6172L13.9922 790.766H12.0547L11.8281 791.883H13.7656L13.1875 794.727H11.3359L11.1172 795.852H12.9531L12.3125 799H13.4219ZM14.2969 794.727L14.875 791.883H17.4453L16.8672 794.727H14.2969ZM21.8672 795.094H25.3672V798.672H26.6328V795.094H30.1328V793.828H26.6328V790.25H25.3672V793.828H21.8672V795.094ZM32.0469 792.984H40.1094V791.719H32.0469V792.984ZM32.0469 797.195H40.1094V795.93H32.0469V797.195Z" fill="black"/>
</g>
<g filter="url(#filter20_d_1_20896)">
<rect x="392" y="771" width="44" height="44" rx="5" fill="#AEB3BE" shape-rendering="crispEdges"/>
<path d="M413.214 790.525C412.922 790.232 412.922 789.757 413.214 789.464C413.507 789.172 413.982 789.172 414.275 789.464L416.75 791.939L419.225 789.464C419.518 789.172 419.993 789.172 420.286 789.464C420.578 789.757 420.578 790.232 420.286 790.525L417.811 793L420.286 795.475C420.578 795.768 420.578 796.243 420.286 796.536C419.993 796.828 419.518 796.828 419.225 796.536L416.75 794.061L414.275 796.536C413.982 796.828 413.507 796.828 413.214 796.536C412.922 796.243 412.922 795.768 413.214 795.475L415.689 793L413.214 790.525Z" fill="black"/>
<path fill-rule="evenodd" clip-rule="evenodd" d="M410.121 785.379L402.5 793L410.121 800.621C410.684 801.184 411.447 801.5 412.243 801.5H422.5C424.157 801.5 425.5 800.157 425.5 798.5V787.5C425.5 785.843 424.157 784.5 422.5 784.5H412.243C411.447 784.5 410.684 784.816 410.121 785.379ZM422.5 800.2H412.243C411.792 800.2 411.359 800.021 411.041 799.702L404.339 793L411.041 786.298C411.359 785.979 411.792 785.8 412.243 785.8H422.5C423.439 785.8 424.2 786.561 424.2 787.5V798.5C424.2 799.439 423.439 800.2 422.5 800.2Z" fill="black"/>
</g>
<g filter="url(#filter21_d_1_20896)">
<rect x="70" y="771" width="70" height="44" rx="5" fill="white" shape-rendering="crispEdges"/>
<path d="M104 801.112C104.809 801.112 105.46 800.45 105.46 799.652C105.46 798.844 104.809 798.192 104 798.192C103.203 798.192 102.54 798.844 102.54 799.652C102.54 800.45 103.203 801.112 104 801.112Z" fill="black"/>
</g>
<g filter="url(#filter22_d_1_20896)">
<rect x="146" y="771" width="71" height="44" rx="5" fill="white" shape-rendering="crispEdges"/>
<path d="M173.784 803.942H187.205V802.123H173.784V803.942Z" fill="black"/>
</g>
<g filter="url(#filter23_d_1_20896)">
<rect x="223" y="771" width="70" height="44" rx="5" fill="white" shape-rendering="crispEdges"/>
<path d="M253.227 795.385H260.773V793.565H253.227V795.385Z" fill="black"/>
</g>
<g filter="url(#filter24_d_1_20896)">
<rect x="299" y="771" width="71" height="44" rx="5" fill="white" shape-rendering="crispEdges"/>
<path d="M327.559 795.385H332.59V800.528H334.41V795.385H339.441V793.565H334.41V788.422H332.59V793.565H327.559V795.385Z" fill="black"/>
</g>
<g filter="url(#filter25_d_1_20896)">
<rect x="113" y="827" width="104" height="44" rx="5" fill="white" shape-rendering="crispEdges"/>
<path d="M145.125 855.148C147.039 855.148 148.5 854.109 148.5 852.609V852.594C148.5 851.391 147.734 850.703 146.148 850.32L144.852 850.008C143.859 849.766 143.438 849.406 143.438 848.836V848.82C143.438 848.078 144.172 847.562 145.172 847.562C146.188 847.562 146.844 848.023 147.023 848.688H148.359C148.172 847.312 146.945 846.43 145.18 846.43C143.391 846.43 142.047 847.484 142.047 848.883V848.891C142.047 850.102 142.758 850.789 144.336 851.164L145.641 851.477C146.68 851.727 147.109 852.125 147.109 852.695V852.711C147.109 853.477 146.305 854.016 145.172 854.016C144.094 854.016 143.422 853.555 143.195 852.852H141.805C141.961 854.242 143.25 855.148 145.125 855.148ZM150.609 857.812H151.969V853.672H152.094C152.555 854.57 153.562 855.148 154.719 855.148C156.859 855.148 158.25 853.438 158.25 850.797V850.781C158.25 848.156 156.852 846.43 154.719 846.43C153.547 846.43 152.609 846.984 152.094 847.922H151.969V846.578H150.609V857.812ZM154.406 853.945C152.875 853.945 151.938 852.742 151.938 850.797V850.781C151.938 848.836 152.875 847.633 154.406 847.633C155.945 847.633 156.859 848.82 156.859 850.781V850.797C156.859 852.758 155.945 853.945 154.406 853.945ZM162.688 855.148C163.82 855.148 164.703 854.656 165.234 853.758H165.359V855H166.719V849.234C166.719 847.484 165.57 846.43 163.516 846.43C161.719 846.43 160.438 847.32 160.219 848.641L160.211 848.688H161.57L161.578 848.664C161.797 848.008 162.461 847.633 163.469 847.633C164.727 847.633 165.359 848.195 165.359 849.234V850L162.945 850.148C160.984 850.266 159.875 851.133 159.875 852.633V852.648C159.875 854.18 161.086 855.148 162.688 855.148ZM161.266 852.617V852.602C161.266 851.766 161.828 851.312 163.109 851.234L165.359 851.094V851.859C165.359 853.062 164.352 853.969 162.969 853.969C161.992 853.969 161.266 853.469 161.266 852.617ZM172.648 855.148C174.672 855.148 175.805 854.062 176.148 852.539L176.164 852.453L174.82 852.461L174.805 852.508C174.492 853.445 173.773 853.945 172.641 853.945C171.141 853.945 170.172 852.703 170.172 850.766V850.75C170.172 848.852 171.125 847.633 172.641 847.633C173.852 847.633 174.602 848.305 174.812 849.133L174.82 849.156H176.172L176.164 849.109C175.914 847.609 174.688 846.43 172.641 846.43C170.281 846.43 168.781 848.133 168.781 850.75V850.766C168.781 853.438 170.289 855.148 172.648 855.148ZM181.594 855.148C183.578 855.148 184.781 854.023 185.07 852.883L185.086 852.82H183.727L183.695 852.891C183.469 853.398 182.766 853.938 181.625 853.938C180.125 853.938 179.164 852.922 179.125 851.18H185.188V850.648C185.188 848.133 183.797 846.43 181.508 846.43C179.219 846.43 177.734 848.211 177.734 850.812V850.82C177.734 853.461 179.188 855.148 181.594 855.148ZM181.5 847.641C182.742 847.641 183.664 848.43 183.805 850.094H179.148C179.297 848.492 180.25 847.641 181.5 847.641Z" fill="black"/>
</g>
<g filter="url(#filter26_d_1_20896)">
<rect x="332" y="827" width="104" height="44" rx="5" fill="#246BFD" shape-rendering="crispEdges"/>
<path d="M360.891 855H362.25V849.781C362.25 848.547 363.172 847.727 364.469 847.727C364.766 847.727 365.023 847.758 365.305 847.805V846.484C365.172 846.461 364.883 846.43 364.625 846.43C363.484 846.43 362.695 846.945 362.375 847.828H362.25V846.578H360.891V855ZM370.188 855.148C372.172 855.148 373.375 854.023 373.664 852.883L373.68 852.82H372.32L372.289 852.891C372.062 853.398 371.359 853.938 370.219 853.938C368.719 853.938 367.758 852.922 367.719 851.18H373.781V850.648C373.781 848.133 372.391 846.43 370.102 846.43C367.812 846.43 366.328 848.211 366.328 850.812V850.82C366.328 853.461 367.781 855.148 370.188 855.148ZM370.094 847.641C371.336 847.641 372.258 848.43 372.398 850.094H367.742C367.891 848.492 368.844 847.641 370.094 847.641ZM378.883 855.062C379.148 855.062 379.406 855.031 379.672 854.984V853.828C379.422 853.852 379.289 853.859 379.047 853.859C378.172 853.859 377.828 853.461 377.828 852.469V847.703H379.672V846.578H377.828V844.398H376.422V846.578H375.094V847.703H376.422V852.812C376.422 854.422 377.148 855.062 378.883 855.062ZM384.523 855.148C385.758 855.148 386.609 854.641 387.023 853.742H387.148V855H388.508V846.578H387.148V851.562C387.148 853.039 386.359 853.945 384.875 853.945C383.531 853.945 382.984 853.219 382.984 851.703V846.578H381.625V852.031C381.625 854.023 382.609 855.148 384.523 855.148ZM391.047 855H392.406V849.781C392.406 848.547 393.328 847.727 394.625 847.727C394.922 847.727 395.18 847.758 395.461 847.805V846.484C395.328 846.461 395.039 846.43 394.781 846.43C393.641 846.43 392.852 846.945 392.531 847.828H392.406V846.578H391.047V855ZM397.297 855H398.656V850.016C398.656 848.539 399.508 847.633 400.852 847.633C402.195 847.633 402.82 848.359 402.82 849.875V855H404.18V849.547C404.18 847.547 403.125 846.43 401.234 846.43C399.992 846.43 399.203 846.953 398.781 847.844H398.656V846.578H397.297V855Z" fill="black"/>
</g>
<g filter="url(#filter27_d_1_20896)">
<rect x="4" y="827" width="103" height="44" rx="5" fill="#AEB3BE" shape-rendering="crispEdges"/>
<path d="M38.1641 855H39.6406L40.7734 851.773H45.2578L46.3906 855H47.8672L43.7109 843.727H42.3203L38.1641 855ZM42.9531 845.547H43.0781L44.8438 850.578H41.1875L42.9531 845.547ZM49.8438 855H54.2422C56.6406 855 58.0625 853.82 58.0625 851.844V851.828C58.0625 850.344 57.0859 849.289 55.5469 849.094V848.969C56.6328 848.773 57.4922 847.711 57.4922 846.547V846.531C57.4922 844.812 56.2266 843.727 54.1562 843.727H49.8438V855ZM53.8594 844.969C55.2578 844.969 56.0703 845.633 56.0703 846.773V846.789C56.0703 847.977 55.2031 848.586 53.5 848.586H51.25V844.969H53.8594ZM53.8984 849.797C55.6953 849.797 56.6172 850.461 56.6172 851.758V851.773C56.6172 853.07 55.7266 853.758 54.0312 853.758H51.25V849.797H53.8984ZM64.8984 855.266C67.2969 855.266 69.0781 853.93 69.4531 851.867V851.852H68.0312L68.0156 851.867C67.6641 853.164 66.4688 853.969 64.8984 853.969C62.7266 853.969 61.3672 852.195 61.3672 849.375V849.359C61.3672 846.539 62.7266 844.758 64.8906 844.758C66.4453 844.758 67.6484 845.672 68.0234 847.117L68.0312 847.133H69.4453L69.4531 847.117C69.1172 844.953 67.2656 843.461 64.8906 843.461C61.8281 843.461 59.9219 845.727 59.9219 849.359V849.375C59.9219 853 61.8359 855.266 64.8984 855.266Z" fill="black"/>
</g>
<g filter="url(#filter28_d_1_20896)">
<rect x="223" y="827" width="49" height="44" rx="5" fill="white" shape-rendering="crispEdges"/>
<path d="M247.017 859.628C248.432 859.628 249.791 859.426 250.801 859.078V857.663C250.094 857.988 248.578 858.202 247.039 858.202C242.232 858.202 239.133 855.113 239.133 850.329V850.307C239.133 845.646 242.289 842.299 246.68 842.299C251.172 842.299 254.249 845.073 254.249 849.116V849.139C254.249 851.89 253.339 853.676 251.924 853.676C251.116 853.676 250.655 853.215 250.655 852.429V845.837H248.959V847.207H248.78C248.342 846.23 247.331 845.624 246.152 845.624C243.85 845.624 242.244 847.533 242.244 850.25V850.273C242.244 853.114 243.816 855.035 246.152 855.035C247.466 855.035 248.477 854.395 248.959 853.249H249.139L249.15 853.316C249.33 854.406 250.318 855.136 251.61 855.136C254.193 855.136 255.833 852.811 255.833 849.161V849.139C255.833 844.276 252.138 840.884 246.826 840.884C241.323 840.884 237.549 844.691 237.549 850.239V850.262C237.549 855.989 241.222 859.628 247.017 859.628ZM246.41 853.451C244.939 853.451 244.041 852.261 244.041 850.318V850.295C244.041 848.341 244.928 847.173 246.433 847.173C247.96 847.173 248.937 848.386 248.937 850.295V850.318C248.937 852.227 247.949 853.451 246.41 853.451Z" fill="black"/>
</g>
<g filter="url(#filter29_d_1_20896)">
<rect x="278" y="827" width="48" height="44" rx="5" fill="white" shape-rendering="crispEdges"/>
<path d="M301.5 857.112C302.309 857.112 302.96 856.45 302.96 855.652C302.96 854.844 302.309 854.192 301.5 854.192C300.703 854.192 300.04 854.844 300.04 855.652C300.04 856.45 300.703 857.112 301.5 857.112Z" fill="black"/>
</g>
<rect x="139.04" y="934" width="161.92" height="5" rx="2.5" fill="black"/>
<path fill-rule="evenodd" clip-rule="evenodd" d="M44 922C35.7157 922 29 915.284 29 907C29 898.716 35.7157 892 44 892C52.2843 892 59 898.716 59 907C59 915.284 52.2843 922 44 922ZM44 920.5C51.4558 920.5 57.5 914.456 57.5 907C57.5 899.544 51.4558 893.5 44 893.5C36.5442 893.5 30.5 899.544 30.5 907C30.5 914.456 36.5442 920.5 44 920.5ZM43.9822 917.5C38.6363 917.5 33.5626 912.373 33.5626 908.667C33.5626 906.541 38.1832 909.1 43.9822 909.1C49.7812 909.1 54.4529 906.544 54.4374 908.667C54.4112 912.258 49.3282 917.5 43.9822 917.5ZM43.9822 912.775C48.9528 912.775 52.3913 910.853 52.3913 909.468C52.3913 908.082 48.9528 910.294 43.9822 910.294C39.0117 910.294 35.6303 908.347 35.6303 909.468C35.6303 910.588 39.0117 912.775 43.9822 912.775ZM39.4813 904.337C38.4975 904.337 37.7 903.54 37.7 902.556C37.7 901.572 38.4975 900.775 39.4813 900.775C40.465 900.775 41.2625 901.572 41.2625 902.556C41.2625 903.54 40.465 904.337 39.4813 904.337ZM48.4813 904.337C47.4975 904.337 46.7 903.54 46.7 902.556C46.7 901.572 47.4975 900.775 48.4813 900.775C49.465 900.775 50.2625 901.572 50.2625 902.556C50.2625 903.54 49.465 904.337 48.4813 904.337Z" fill="#50545B"/>
<path d="M23.9508 55L15 62.5485L23.9508 69.918V63.9508H38.8687V60.9672H23.9508V55Z" fill="black"/>
<defs>
<filter id="filter1_d_1_20896" x="4" y="659" width="38" height="45" filterUnits="userSpaceOnUse" color-interpolation-filters="sRGB">
<feFlood flood-opacity="0" result="BackgroundImageFix"/>
<feColorMatrix in="SourceAlpha" type="matrix" values="0 0 0 0 0 0 0 0 0 0 0 0 0 0 0 0 0 0 127 0" result="hardAlpha"/>
<feOffset dy="1"/>
<feComposite in2="hardAlpha" operator="out"/>
<feColorMatrix type="matrix" values="0 0 0 0 0 0 0 0 0 0 0 0 0 0 0 0 0 0 0.3 0"/>
<feBlend mode="normal" in2="BackgroundImageFix" result="effect1_dropShadow_1_20896"/>
<feBlend mode="normal" in="SourceGraphic" in2="effect1_dropShadow_1_20896" result="shape"/>
</filter>
<filter id="filter2_d_1_20896" x="48" y="659" width="37" height="45" filterUnits="userSpaceOnUse" color-interpolation-filters="sRGB">
<feFlood flood-opacity="0" result="BackgroundImageFix"/>
<feColorMatrix in="SourceAlpha" type="matrix" values="0 0 0 0 0 0 0 0 0 0 0 0 0 0 0 0 0 0 127 0" result="hardAlpha"/>
<feOffset dy="1"/>
<feComposite in2="hardAlpha" operator="out"/>
<feColorMatrix type="matrix" values="0 0 0 0 0 0 0 0 0 0 0 0 0 0 0 0 0 0 0.3 0"/>
<feBlend mode="normal" in2="BackgroundImageFix" result="effect1_dropShadow_1_20896"/>
<feBlend mode="normal" in="SourceGraphic" in2="effect1_dropShadow_1_20896" result="shape"/>
</filter>
<filter id="filter3_d_1_20896" x="91" y="659" width="39" height="45" filterUnits="userSpaceOnUse" color-interpolation-filters="sRGB">
<feFlood flood-opacity="0" result="BackgroundImageFix"/>
<feColorMatrix in="SourceAlpha" type="matrix" values="0 0 0 0 0 0 0 0 0 0 0 0 0 0 0 0 0 0 127 0" result="hardAlpha"/>
<feOffset dy="1"/>
<feComposite in2="hardAlpha" operator="out"/>
<feColorMatrix type="matrix" values="0 0 0 0 0 0 0 0 0 0 0 0 0 0 0 0 0 0 0.3 0"/>
<feBlend mode="normal" in2="BackgroundImageFix" result="effect1_dropShadow_1_20896"/>
<feBlend mode="normal" in="SourceGraphic" in2="effect1_dropShadow_1_20896" result="shape"/>
</filter>
<filter id="filter4_d_1_20896" x="136" y="659" width="37" height="45" filterUnits="userSpaceOnUse" color-interpolation-filters="sRGB">
<feFlood flood-opacity="0" result="BackgroundImageFix"/>
<feColorMatrix in="SourceAlpha" type="matrix" values="0 0 0 0 0 0 0 0 0 0 0 0 0 0 0 0 0 0 127 0" result="hardAlpha"/>
<feOffset dy="1"/>
<feComposite in2="hardAlpha" operator="out"/>
<feColorMatrix type="matrix" values="0 0 0 0 0 0 0 0 0 0 0 0 0 0 0 0 0 0 0.3 0"/>
<feBlend mode="normal" in2="BackgroundImageFix" result="effect1_dropShadow_1_20896"/>
<feBlend mode="normal" in="SourceGraphic" in2="effect1_dropShadow_1_20896" result="shape"/>
</filter>
<filter id="filter5_d_1_20896" x="179" y="659" width="38" height="45" filterUnits="userSpaceOnUse" color-interpolation-filters="sRGB">
<feFlood flood-opacity="0" result="BackgroundImageFix"/>
<feColorMatrix in="SourceAlpha" type="matrix" values="0 0 0 0 0 0 0 0 0 0 0 0 0 0 0 0 0 0 127 0" result="hardAlpha"/>
<feOffset dy="1"/>
<feComposite in2="hardAlpha" operator="out"/>
<feColorMatrix type="matrix" values="0 0 0 0 0 0 0 0 0 0 0 0 0 0 0 0 0 0 0.3 0"/>
<feBlend mode="normal" in2="BackgroundImageFix" result="effect1_dropShadow_1_20896"/>
<feBlend mode="normal" in="SourceGraphic" in2="effect1_dropShadow_1_20896" result="shape"/>
</filter>
<filter id="filter6_d_1_20896" x="223" y="659" width="38" height="45" filterUnits="userSpaceOnUse" color-interpolation-filters="sRGB">
<feFlood flood-opacity="0" result="BackgroundImageFix"/>
<feColorMatrix in="SourceAlpha" type="matrix" values="0 0 0 0 0 0 0 0 0 0 0 0 0 0 0 0 0 0 127 0" result="hardAlpha"/>
<feOffset dy="1"/>
<feComposite in2="hardAlpha" operator="out"/>
<feColorMatrix type="matrix" values="0 0 0 0 0 0 0 0 0 0 0 0 0 0 0 0 0 0 0.3 0"/>
<feBlend mode="normal" in2="BackgroundImageFix" result="effect1_dropShadow_1_20896"/>
<feBlend mode="normal" in="SourceGraphic" in2="effect1_dropShadow_1_20896" result="shape"/>
</filter>
<filter id="filter7_d_1_20896" x="267" y="659" width="37" height="45" filterUnits="userSpaceOnUse" color-interpolation-filters="sRGB">
<feFlood flood-opacity="0" result="BackgroundImageFix"/>
<feColorMatrix in="SourceAlpha" type="matrix" values="0 0 0 0 0 0 0 0 0 0 0 0 0 0 0 0 0 0 127 0" result="hardAlpha"/>
<feOffset dy="1"/>
<feComposite in2="hardAlpha" operator="out"/>
<feColorMatrix type="matrix" values="0 0 0 0 0 0 0 0 0 0 0 0 0 0 0 0 0 0 0.3 0"/>
<feBlend mode="normal" in2="BackgroundImageFix" result="effect1_dropShadow_1_20896"/>
<feBlend mode="normal" in="SourceGraphic" in2="effect1_dropShadow_1_20896" result="shape"/>
</filter>
<filter id="filter8_d_1_20896" x="310" y="659" width="39" height="45" filterUnits="userSpaceOnUse" color-interpolation-filters="sRGB">
<feFlood flood-opacity="0" result="BackgroundImageFix"/>
<feColorMatrix in="SourceAlpha" type="matrix" values="0 0 0 0 0 0 0 0 0 0 0 0 0 0 0 0 0 0 127 0" result="hardAlpha"/>
<feOffset dy="1"/>
<feComposite in2="hardAlpha" operator="out"/>
<feColorMatrix type="matrix" values="0 0 0 0 0 0 0 0 0 0 0 0 0 0 0 0 0 0 0.3 0"/>
<feBlend mode="normal" in2="BackgroundImageFix" result="effect1_dropShadow_1_20896"/>
<feBlend mode="normal" in="SourceGraphic" in2="effect1_dropShadow_1_20896" result="shape"/>
</filter>
<filter id="filter9_d_1_20896" x="355" y="659" width="37" height="45" filterUnits="userSpaceOnUse" color-interpolation-filters="sRGB">
<feFlood flood-opacity="0" result="BackgroundImageFix"/>
<feColorMatrix in="SourceAlpha" type="matrix" values="0 0 0 0 0 0 0 0 0 0 0 0 0 0 0 0 0 0 127 0" result="hardAlpha"/>
<feOffset dy="1"/>
<feComposite in2="hardAlpha" operator="out"/>
<feColorMatrix type="matrix" values="0 0 0 0 0 0 0 0 0 0 0 0 0 0 0 0 0 0 0.3 0"/>
<feBlend mode="normal" in2="BackgroundImageFix" result="effect1_dropShadow_1_20896"/>
<feBlend mode="normal" in="SourceGraphic" in2="effect1_dropShadow_1_20896" result="shape"/>
</filter>
<filter id="filter10_d_1_20896" x="398" y="659" width="38" height="45" filterUnits="userSpaceOnUse" color-interpolation-filters="sRGB">
<feFlood flood-opacity="0" result="BackgroundImageFix"/>
<feColorMatrix in="SourceAlpha" type="matrix" values="0 0 0 0 0 0 0 0 0 0 0 0 0 0 0 0 0 0 127 0" result="hardAlpha"/>
<feOffset dy="1"/>
<feComposite in2="hardAlpha" operator="out"/>
<feColorMatrix type="matrix" values="0 0 0 0 0 0 0 0 0 0 0 0 0 0 0 0 0 0 0.3 0"/>
<feBlend mode="normal" in2="BackgroundImageFix" result="effect1_dropShadow_1_20896"/>
<feBlend mode="normal" in="SourceGraphic" in2="effect1_dropShadow_1_20896" result="shape"/>
</filter>
<filter id="filter11_d_1_20896" x="26" y="715" width="44" height="45" filterUnits="userSpaceOnUse" color-interpolation-filters="sRGB">
<feFlood flood-opacity="0" result="BackgroundImageFix"/>
<feColorMatrix in="SourceAlpha" type="matrix" values="0 0 0 0 0 0 0 0 0 0 0 0 0 0 0 0 0 0 127 0" result="hardAlpha"/>
<feOffset dy="1"/>
<feComposite in2="hardAlpha" operator="out"/>
<feColorMatrix type="matrix" values="0 0 0 0 0 0 0 0 0 0 0 0 0 0 0 0 0 0 0.3 0"/>
<feBlend mode="normal" in2="BackgroundImageFix" result="effect1_dropShadow_1_20896"/>
<feBlend mode="normal" in="SourceGraphic" in2="effect1_dropShadow_1_20896" result="shape"/>
</filter>
<filter id="filter12_d_1_20896" x="76" y="715" width="43" height="45" filterUnits="userSpaceOnUse" color-interpolation-filters="sRGB">
<feFlood flood-opacity="0" result="BackgroundImageFix"/>
<feColorMatrix in="SourceAlpha" type="matrix" values="0 0 0 0 0 0 0 0 0 0 0 0 0 0 0 0 0 0 127 0" result="hardAlpha"/>
<feOffset dy="1"/>
<feComposite in2="hardAlpha" operator="out"/>
<feColorMatrix type="matrix" values="0 0 0 0 0 0 0 0 0 0 0 0 0 0 0 0 0 0 0.3 0"/>
<feBlend mode="normal" in2="BackgroundImageFix" result="effect1_dropShadow_1_20896"/>
<feBlend mode="normal" in="SourceGraphic" in2="effect1_dropShadow_1_20896" result="shape"/>
</filter>
<filter id="filter13_d_1_20896" x="125" y="715" width="43" height="45" filterUnits="userSpaceOnUse" color-interpolation-filters="sRGB">
<feFlood flood-opacity="0" result="BackgroundImageFix"/>
<feColorMatrix in="SourceAlpha" type="matrix" values="0 0 0 0 0 0 0 0 0 0 0 0 0 0 0 0 0 0 127 0" result="hardAlpha"/>
<feOffset dy="1"/>
<feComposite in2="hardAlpha" operator="out"/>
<feColorMatrix type="matrix" values="0 0 0 0 0 0 0 0 0 0 0 0 0 0 0 0 0 0 0.3 0"/>
<feBlend mode="normal" in2="BackgroundImageFix" result="effect1_dropShadow_1_20896"/>
<feBlend mode="normal" in="SourceGraphic" in2="effect1_dropShadow_1_20896" result="shape"/>
</filter>
<filter id="filter14_d_1_20896" x="174" y="715" width="43" height="45" filterUnits="userSpaceOnUse" color-interpolation-filters="sRGB">
<feFlood flood-opacity="0" result="BackgroundImageFix"/>
<feColorMatrix in="SourceAlpha" type="matrix" values="0 0 0 0 0 0 0 0 0 0 0 0 0 0 0 0 0 0 127 0" result="hardAlpha"/>
<feOffset dy="1"/>
<feComposite in2="hardAlpha" operator="out"/>
<feColorMatrix type="matrix" values="0 0 0 0 0 0 0 0 0 0 0 0 0 0 0 0 0 0 0.3 0"/>
<feBlend mode="normal" in2="BackgroundImageFix" result="effect1_dropShadow_1_20896"/>
<feBlend mode="normal" in="SourceGraphic" in2="effect1_dropShadow_1_20896" result="shape"/>
</filter>
<filter id="filter15_d_1_20896" x="223" y="715" width="44" height="45" filterUnits="userSpaceOnUse" color-interpolation-filters="sRGB">
<feFlood flood-opacity="0" result="BackgroundImageFix"/>
<feColorMatrix in="SourceAlpha" type="matrix" values="0 0 0 0 0 0 0 0 0 0 0 0 0 0 0 0 0 0 127 0" result="hardAlpha"/>
<feOffset dy="1"/>
<feComposite in2="hardAlpha" operator="out"/>
<feColorMatrix type="matrix" values="0 0 0 0 0 0 0 0 0 0 0 0 0 0 0 0 0 0 0.3 0"/>
<feBlend mode="normal" in2="BackgroundImageFix" result="effect1_dropShadow_1_20896"/>
<feBlend mode="normal" in="SourceGraphic" in2="effect1_dropShadow_1_20896" result="shape"/>
</filter>
<filter id="filter16_d_1_20896" x="273" y="715" width="43" height="45" filterUnits="userSpaceOnUse" color-interpolation-filters="sRGB">
<feFlood flood-opacity="0" result="BackgroundImageFix"/>
<feColorMatrix in="SourceAlpha" type="matrix" values="0 0 0 0 0 0 0 0 0 0 0 0 0 0 0 0 0 0 127 0" result="hardAlpha"/>
<feOffset dy="1"/>
<feComposite in2="hardAlpha" operator="out"/>
<feColorMatrix type="matrix" values="0 0 0 0 0 0 0 0 0 0 0 0 0 0 0 0 0 0 0.3 0"/>
<feBlend mode="normal" in2="BackgroundImageFix" result="effect1_dropShadow_1_20896"/>
<feBlend mode="normal" in="SourceGraphic" in2="effect1_dropShadow_1_20896" result="shape"/>
</filter>
<filter id="filter17_d_1_20896" x="322" y="715" width="43" height="45" filterUnits="userSpaceOnUse" color-interpolation-filters="sRGB">
<feFlood flood-opacity="0" result="BackgroundImageFix"/>
<feColorMatrix in="SourceAlpha" type="matrix" values="0 0 0 0 0 0 0 0 0 0 0 0 0 0 0 0 0 0 127 0" result="hardAlpha"/>
<feOffset dy="1"/>
<feComposite in2="hardAlpha" operator="out"/>
<feColorMatrix type="matrix" values="0 0 0 0 0 0 0 0 0 0 0 0 0 0 0 0 0 0 0.3 0"/>
<feBlend mode="normal" in2="BackgroundImageFix" result="effect1_dropShadow_1_20896"/>
<feBlend mode="normal" in="SourceGraphic" in2="effect1_dropShadow_1_20896" result="shape"/>
</filter>
<filter id="filter18_d_1_20896" x="371" y="715" width="43" height="45" filterUnits="userSpaceOnUse" color-interpolation-filters="sRGB">
<feFlood flood-opacity="0" result="BackgroundImageFix"/>
<feColorMatrix in="SourceAlpha" type="matrix" values="0 0 0 0 0 0 0 0 0 0 0 0 0 0 0 0 0 0 127 0" result="hardAlpha"/>
<feOffset dy="1"/>
<feComposite in2="hardAlpha" operator="out"/>
<feColorMatrix type="matrix" values="0 0 0 0 0 0 0 0 0 0 0 0 0 0 0 0 0 0 0.3 0"/>
<feBlend mode="normal" in2="BackgroundImageFix" result="effect1_dropShadow_1_20896"/>
<feBlend mode="normal" in="SourceGraphic" in2="effect1_dropShadow_1_20896" result="shape"/>
</filter>
<filter id="filter19_d_1_20896" x="4" y="771" width="44" height="45" filterUnits="userSpaceOnUse" color-interpolation-filters="sRGB">
<feFlood flood-opacity="0" result="BackgroundImageFix"/>
<feColorMatrix in="SourceAlpha" type="matrix" values="0 0 0 0 0 0 0 0 0 0 0 0 0 0 0 0 0 0 127 0" result="hardAlpha"/>
<feOffset dy="1"/>
<feComposite in2="hardAlpha" operator="out"/>
<feColorMatrix type="matrix" values="0 0 0 0 0 0 0 0 0 0 0 0 0 0 0 0 0 0 0.3 0"/>
<feBlend mode="normal" in2="BackgroundImageFix" result="effect1_dropShadow_1_20896"/>
<feBlend mode="normal" in="SourceGraphic" in2="effect1_dropShadow_1_20896" result="shape"/>
</filter>
<filter id="filter20_d_1_20896" x="392" y="771" width="44" height="45" filterUnits="userSpaceOnUse" color-interpolation-filters="sRGB">
<feFlood flood-opacity="0" result="BackgroundImageFix"/>
<feColorMatrix in="SourceAlpha" type="matrix" values="0 0 0 0 0 0 0 0 0 0 0 0 0 0 0 0 0 0 127 0" result="hardAlpha"/>
<feOffset dy="1"/>
<feComposite in2="hardAlpha" operator="out"/>
<feColorMatrix type="matrix" values="0 0 0 0 0 0 0 0 0 0 0 0 0 0 0 0 0 0 0.3 0"/>
<feBlend mode="normal" in2="BackgroundImageFix" result="effect1_dropShadow_1_20896"/>
<feBlend mode="normal" in="SourceGraphic" in2="effect1_dropShadow_1_20896" result="shape"/>
</filter>
<filter id="filter21_d_1_20896" x="70" y="771" width="70" height="45" filterUnits="userSpaceOnUse" color-interpolation-filters="sRGB">
<feFlood flood-opacity="0" result="BackgroundImageFix"/>
<feColorMatrix in="SourceAlpha" type="matrix" values="0 0 0 0 0 0 0 0 0 0 0 0 0 0 0 0 0 0 127 0" result="hardAlpha"/>
<feOffset dy="1"/>
<feComposite in2="hardAlpha" operator="out"/>
<feColorMatrix type="matrix" values="0 0 0 0 0 0 0 0 0 0 0 0 0 0 0 0 0 0 0.3 0"/>
<feBlend mode="normal" in2="BackgroundImageFix" result="effect1_dropShadow_1_20896"/>
<feBlend mode="normal" in="SourceGraphic" in2="effect1_dropShadow_1_20896" result="shape"/>
</filter>
<filter id="filter22_d_1_20896" x="146" y="771" width="71" height="45" filterUnits="userSpaceOnUse" color-interpolation-filters="sRGB">
<feFlood flood-opacity="0" result="BackgroundImageFix"/>
<feColorMatrix in="SourceAlpha" type="matrix" values="0 0 0 0 0 0 0 0 0 0 0 0 0 0 0 0 0 0 127 0" result="hardAlpha"/>
<feOffset dy="1"/>
<feComposite in2="hardAlpha" operator="out"/>
<feColorMatrix type="matrix" values="0 0 0 0 0 0 0 0 0 0 0 0 0 0 0 0 0 0 0.3 0"/>
<feBlend mode="normal" in2="BackgroundImageFix" result="effect1_dropShadow_1_20896"/>
<feBlend mode="normal" in="SourceGraphic" in2="effect1_dropShadow_1_20896" result="shape"/>
</filter>
<filter id="filter23_d_1_20896" x="223" y="771" width="70" height="45" filterUnits="userSpaceOnUse" color-interpolation-filters="sRGB">
<feFlood flood-opacity="0" result="BackgroundImageFix"/>
<feColorMatrix in="SourceAlpha" type="matrix" values="0 0 0 0 0 0 0 0 0 0 0 0 0 0 0 0 0 0 127 0" result="hardAlpha"/>
<feOffset dy="1"/>
<feComposite in2="hardAlpha" operator="out"/>
<feColorMatrix type="matrix" values="0 0 0 0 0 0 0 0 0 0 0 0 0 0 0 0 0 0 0.3 0"/>
<feBlend mode="normal" in2="BackgroundImageFix" result="effect1_dropShadow_1_20896"/>
<feBlend mode="normal" in="SourceGraphic" in2="effect1_dropShadow_1_20896" result="shape"/>
</filter>
<filter id="filter24_d_1_20896" x="299" y="771" width="71" height="45" filterUnits="userSpaceOnUse" color-interpolation-filters="sRGB">
<feFlood flood-opacity="0" result="BackgroundImageFix"/>
<feColorMatrix in="SourceAlpha" type="matrix" values="0 0 0 0 0 0 0 0 0 0 0 0 0 0 0 0 0 0 127 0" result="hardAlpha"/>
<feOffset dy="1"/>
<feComposite in2="hardAlpha" operator="out"/>
<feColorMatrix type="matrix" values="0 0 0 0 0 0 0 0 0 0 0 0 0 0 0 0 0 0 0.3 0"/>
<feBlend mode="normal" in2="BackgroundImageFix" result="effect1_dropShadow_1_20896"/>
<feBlend mode="normal" in="SourceGraphic" in2="effect1_dropShadow_1_20896" result="shape"/>
</filter>
<filter id="filter25_d_1_20896" x="113" y="827" width="104" height="45" filterUnits="userSpaceOnUse" color-interpolation-filters="sRGB">
<feFlood flood-opacity="0" result="BackgroundImageFix"/>
<feColorMatrix in="SourceAlpha" type="matrix" values="0 0 0 0 0 0 0 0 0 0 0 0 0 0 0 0 0 0 127 0" result="hardAlpha"/>
<feOffset dy="1"/>
<feComposite in2="hardAlpha" operator="out"/>
<feColorMatrix type="matrix" values="0 0 0 0 0 0 0 0 0 0 0 0 0 0 0 0 0 0 0.3 0"/>
<feBlend mode="normal" in2="BackgroundImageFix" result="effect1_dropShadow_1_20896"/>
<feBlend mode="normal" in="SourceGraphic" in2="effect1_dropShadow_1_20896" result="shape"/>
</filter>
<filter id="filter26_d_1_20896" x="332" y="827" width="104" height="45" filterUnits="userSpaceOnUse" color-interpolation-filters="sRGB">
<feFlood flood-opacity="0" result="BackgroundImageFix"/>
<feColorMatrix in="SourceAlpha" type="matrix" values="0 0 0 0 0 0 0 0 0 0 0 0 0 0 0 0 0 0 127 0" result="hardAlpha"/>
<feOffset dy="1"/>
<feComposite in2="hardAlpha" operator="out"/>
<feColorMatrix type="matrix" values="0 0 0 0 0 0 0 0 0 0 0 0 0 0 0 0 0 0 0.3 0"/>
<feBlend mode="normal" in2="BackgroundImageFix" result="effect1_dropShadow_1_20896"/>
<feBlend mode="normal" in="SourceGraphic" in2="effect1_dropShadow_1_20896" result="shape"/>
</filter>
<filter id="filter27_d_1_20896" x="4" y="827" width="103" height="45" filterUnits="userSpaceOnUse" color-interpolation-filters="sRGB">
<feFlood flood-opacity="0" result="BackgroundImageFix"/>
<feColorMatrix in="SourceAlpha" type="matrix" values="0 0 0 0 0 0 0 0 0 0 0 0 0 0 0 0 0 0 127 0" result="hardAlpha"/>
<feOffset dy="1"/>
<feComposite in2="hardAlpha" operator="out"/>
<feColorMatrix type="matrix" values="0 0 0 0 0 0 0 0 0 0 0 0 0 0 0 0 0 0 0.3 0"/>
<feBlend mode="normal" in2="BackgroundImageFix" result="effect1_dropShadow_1_20896"/>
<feBlend mode="normal" in="SourceGraphic" in2="effect1_dropShadow_1_20896" result="shape"/>
</filter>
<filter id="filter28_d_1_20896" x="223" y="827" width="49" height="45" filterUnits="userSpaceOnUse" color-interpolation-filters="sRGB">
<feFlood flood-opacity="0" result="BackgroundImageFix"/>
<feColorMatrix in="SourceAlpha" type="matrix" values="0 0 0 0 0 0 0 0 0 0 0 0 0 0 0 0 0 0 127 0" result="hardAlpha"/>
<feOffset dy="1"/>
<feComposite in2="hardAlpha" operator="out"/>
<feColorMatrix type="matrix" values="0 0 0 0 0 0 0 0 0 0 0 0 0 0 0 0 0 0 0.3 0"/>
<feBlend mode="normal" in2="BackgroundImageFix" result="effect1_dropShadow_1_20896"/>
<feBlend mode="normal" in="SourceGraphic" in2="effect1_dropShadow_1_20896" result="shape"/>
</filter>
<filter id="filter29_d_1_20896" x="278" y="827" width="48" height="45" filterUnits="userSpaceOnUse" color-interpolation-filters="sRGB">
<feFlood flood-opacity="0" result="BackgroundImageFix"/>
<feColorMatrix in="SourceAlpha" type="matrix" values="0 0 0 0 0 0 0 0 0 0 0 0 0 0 0 0 0 0 127 0" result="hardAlpha"/>
<feOffset dy="1"/>
<feComposite in2="hardAlpha" operator="out"/>
<feColorMatrix type="matrix" values="0 0 0 0 0 0 0 0 0 0 0 0 0 0 0 0 0 0 0.3 0"/>
<feBlend mode="normal" in2="BackgroundImageFix" result="effect1_dropShadow_1_20896"/>
<feBlend mode="normal" in="SourceGraphic" in2="effect1_dropShadow_1_20896" result="shape"/>
</filter>
<linearGradient id="paint0_linear_1_20896" x1="220" y1="607" x2="223.235" y2="1016.44" gradientUnits="userSpaceOnUse">
<stop stop-color="#9AD4E5"/>
<stop offset="0.908654" stop-color="#EDFFFF"/>
</linearGradient>
</defs>
</svg>
