<svg width="440" height="956" viewBox="0 0 440 956" fill="none" xmlns="http://www.w3.org/2000/svg">
<rect width="440" height="956" fill="white"/>
<rect x="54" y="35" width="350" height="54" rx="20" fill="#E9E9E9"/>
<path d="M89.5686 49.3807C83.7591 49.3807 79.0332 54.1066 79.0332 59.9161C79.0332 65.7256 83.7591 70.4514 89.5686 70.4514C91.3445 70.4514 93.0904 70.03 94.5653 69.2173C94.6835 69.3595 94.8145 69.4905 94.9567 69.6086L97.9668 72.6187C98.2447 72.9315 98.5836 73.1841 98.9628 73.3611C99.3419 73.5381 99.7532 73.6358 100.171 73.6481C100.59 73.6604 101.006 73.5871 101.395 73.4327C101.784 73.2783 102.137 73.046 102.433 72.7502C102.729 72.4543 102.961 72.1011 103.115 71.7122C103.27 71.3234 103.343 70.907 103.331 70.4888C103.318 70.0706 103.221 69.6593 103.044 69.2801C102.867 68.901 102.614 68.5621 102.301 68.2842L99.2912 65.274C99.1446 65.1274 98.9832 64.9962 98.8096 64.8827C99.6223 63.4078 100.134 61.692 100.134 59.886C100.134 54.0765 95.4082 49.3506 89.5987 49.3506L89.5686 49.3807ZM89.5686 52.3908C93.7526 52.3908 97.0938 55.732 97.0938 59.9161C97.0938 61.9027 96.3714 63.7389 95.1072 65.0934C95.0771 65.1235 95.047 65.1536 95.0169 65.1837C94.8747 65.3019 94.7437 65.4329 94.6256 65.5751C93.3011 66.7791 91.495 67.4714 89.5385 67.4714C85.3544 67.4714 82.0132 64.1302 82.0132 59.9462C82.0132 55.7621 85.3544 52.4209 89.5385 52.4209L89.5686 52.3908Z" fill="#A1A1A1"/>
<path d="M115.74 67C115.415 67 115.252 66.821 115.252 66.4629V53.5332C115.252 53.1751 115.415 52.9961 115.74 52.9961H119.842C122.055 52.9961 123.549 53.3704 124.324 54.1191C125.099 54.8613 125.486 55.8835 125.486 57.1855C125.486 58.4876 125.099 59.513 124.324 60.2617C123.549 61.0039 122.055 61.375 119.842 61.375H117.127V66.4629C117.127 66.821 116.964 67 116.639 67H115.74ZM117.127 59.7734H119.871C121.303 59.7734 122.28 59.5716 122.801 59.168C123.322 58.7578 123.582 58.097 123.582 57.1855C123.582 56.2741 123.322 55.6165 122.801 55.2129C122.28 54.8027 121.303 54.5977 119.871 54.5977H117.127V59.7734ZM127.195 64.2656C127.195 63.1068 127.736 62.2572 128.816 61.7168C129.904 61.1764 131.525 60.8607 133.68 60.7695V60.1055C133.68 59.4935 133.54 58.9661 133.26 58.5234C132.986 58.0742 132.439 57.8496 131.619 57.8496C131.098 57.8496 130.682 57.9017 130.369 58.0059C130.057 58.1035 129.77 58.237 129.51 58.4062C129.256 58.569 129.012 58.7806 128.777 59.041C128.602 59.2363 128.436 59.2461 128.279 59.0703L127.771 58.4844C127.628 58.3216 127.677 58.1263 127.918 57.8984C128.263 57.5729 128.598 57.3288 128.924 57.166C129.249 57.0033 129.653 56.8665 130.135 56.7559C130.623 56.6387 131.118 56.5801 131.619 56.5801C132.98 56.5801 133.95 56.9316 134.529 57.6348C135.109 58.3314 135.398 59.2884 135.398 60.5059V66.5605C135.398 66.8535 135.252 67 134.959 67H134.08C133.826 67 133.699 66.8535 133.699 66.5605V66.082H133.68C133.165 66.4857 132.661 66.7689 132.166 66.9316C131.678 67.0879 131.131 67.166 130.525 67.166C129.458 67.166 128.634 66.9121 128.055 66.4043C127.482 65.89 127.195 65.1771 127.195 64.2656ZM128.973 64.3047C128.973 64.7083 129.057 65.0339 129.227 65.2812C129.396 65.5221 129.63 65.6784 129.93 65.75C130.229 65.8151 130.542 65.8477 130.867 65.8477C131.368 65.8477 131.844 65.7988 132.293 65.7012C132.742 65.6035 133.204 65.3464 133.68 64.9297V62.0488C132.365 62.1465 131.427 62.2669 130.867 62.4102C130.307 62.5469 129.852 62.7878 129.5 63.1328C129.148 63.4714 128.973 63.862 128.973 64.3047ZM137.684 58.0352C137.391 58.0352 137.244 57.9212 137.244 57.6934V57.0879C137.244 56.86 137.391 56.7461 137.684 56.7461H138.836V55.8672C138.836 55.737 138.868 55.6133 138.934 55.4961L139.617 54.2559C139.741 54.028 139.842 53.9141 139.92 53.9141H140.262C140.457 53.9141 140.555 54.028 140.555 54.2559V56.7461H142.635C142.928 56.7461 143.074 56.86 143.074 57.0879V57.6934C143.074 57.9212 142.928 58.0352 142.635 58.0352H140.555V64.2559C140.555 64.9395 140.656 65.3854 140.857 65.5938C141.066 65.7956 141.313 65.8965 141.6 65.8965C141.821 65.8965 142.085 65.8314 142.391 65.7012C142.703 65.571 142.918 65.4603 143.035 65.3691C143.152 65.278 143.243 65.3073 143.309 65.457L143.631 66.209C143.683 66.3392 143.644 66.4434 143.514 66.5215C143.26 66.6712 142.889 66.8177 142.4 66.9609C141.912 67.0977 141.424 67.166 140.936 67.166C140.258 67.166 139.738 66.9219 139.373 66.4336C139.015 65.9453 138.836 65.2552 138.836 64.3633V58.0352H137.684ZM146.023 67C145.73 67 145.584 66.8535 145.584 66.5605V57.1855C145.584 56.8926 145.73 56.7461 146.023 56.7461H146.863C147.156 56.7461 147.303 56.8926 147.303 57.1855V66.5605C147.303 66.8535 147.156 67 146.863 67H146.023ZM146.023 54.8906C145.73 54.8906 145.584 54.7441 145.584 54.4512V53.6113C145.584 53.3184 145.73 53.1719 146.023 53.1719H146.863C147.156 53.1719 147.303 53.3184 147.303 53.6113V54.4512C147.303 54.7441 147.156 54.8906 146.863 54.8906H146.023ZM149.52 61.873C149.52 60.2585 149.923 58.9727 150.73 58.0156C151.538 57.0586 152.693 56.5801 154.197 56.5801C155.447 56.5801 156.482 57.0195 157.303 57.8984C158.13 58.7708 158.543 60.1673 158.543 62.0879C158.543 62.3809 158.41 62.5273 158.143 62.5273H151.336C151.447 63.7839 151.785 64.6595 152.352 65.1543C152.918 65.6426 153.559 65.8867 154.275 65.8867C155.031 65.8867 155.61 65.7598 156.014 65.5059C156.417 65.252 156.714 65.0013 156.902 64.7539C157.111 64.4805 157.312 64.4284 157.508 64.5977L158.084 65.0957C158.234 65.2259 158.234 65.4049 158.084 65.6328C157.96 65.8216 157.605 66.1243 157.02 66.541C156.44 66.9577 155.525 67.166 154.275 67.166C152.648 67.166 151.447 66.6875 150.672 65.7305C149.904 64.7734 149.52 63.4876 149.52 61.873ZM151.297 61.2578H156.814C156.788 60.3464 156.554 59.5488 156.111 58.8652C155.669 58.1751 155.018 57.8301 154.158 57.8301C153.403 57.8301 152.762 58.084 152.234 58.5918C151.707 59.0931 151.395 59.9818 151.297 61.2578ZM161.238 67C160.945 67 160.799 66.8535 160.799 66.5605V57.1855C160.799 56.8926 160.945 56.7461 161.238 56.7461H162.059C162.352 56.7461 162.498 56.8926 162.498 57.1855V57.9668H162.537C162.96 57.498 163.416 57.1497 163.904 56.9219C164.393 56.694 165.001 56.5801 165.73 56.5801C166.915 56.5801 167.765 56.9154 168.279 57.5859C168.8 58.25 169.061 59.1615 169.061 60.3203V66.5605C169.061 66.8535 168.914 67 168.621 67H167.781C167.488 67 167.342 66.8535 167.342 66.5605V60.7891C167.342 59.513 167.13 58.7057 166.707 58.3672C166.284 58.0221 165.747 57.8496 165.096 57.8496C164.249 57.8496 163.608 58.1035 163.172 58.6113C162.736 59.1126 162.518 59.9753 162.518 61.1992V66.5605C162.518 66.8535 162.371 67 162.078 67H161.238ZM171.316 58.0352C171.023 58.0352 170.877 57.9212 170.877 57.6934V57.0879C170.877 56.86 171.023 56.7461 171.316 56.7461H172.469V55.8672C172.469 55.737 172.501 55.6133 172.566 55.4961L173.25 54.2559C173.374 54.028 173.475 53.9141 173.553 53.9141H173.895C174.09 53.9141 174.188 54.028 174.188 54.2559V56.7461H176.268C176.561 56.7461 176.707 56.86 176.707 57.0879V57.6934C176.707 57.9212 176.561 58.0352 176.268 58.0352H174.188V64.2559C174.188 64.9395 174.288 65.3854 174.49 65.5938C174.699 65.7956 174.946 65.8965 175.232 65.8965C175.454 65.8965 175.717 65.8314 176.023 65.7012C176.336 65.571 176.551 65.4603 176.668 65.3691C176.785 65.278 176.876 65.3073 176.941 65.457L177.264 66.209C177.316 66.3392 177.277 66.4434 177.146 66.5215C176.893 66.6712 176.521 66.8177 176.033 66.9609C175.545 67.0977 175.057 67.166 174.568 67.166C173.891 67.166 173.37 66.9219 173.006 66.4336C172.648 65.9453 172.469 65.2552 172.469 64.3633V58.0352H171.316ZM186.639 67C186.313 67 186.15 66.821 186.15 66.4629V53.5332C186.15 53.1751 186.313 52.9961 186.639 52.9961H187.889C188.344 52.9961 188.67 53.1589 188.865 53.4844L194.979 63.7285H195.018C195.005 63.4681 194.998 63.2077 194.998 62.9473V53.5332C194.998 53.1751 195.161 52.9961 195.486 52.9961H196.385C196.71 52.9961 196.873 53.1751 196.873 53.5332V66.4629C196.873 66.821 196.71 67 196.385 67H195.525C195.07 67 194.744 66.8372 194.549 66.5117L188.045 55.6426H188.006C188.019 55.903 188.025 56.1634 188.025 56.4238V66.4629C188.025 66.821 187.863 67 187.537 67H186.639ZM199.363 64.2656C199.363 63.1068 199.904 62.2572 200.984 61.7168C202.072 61.1764 203.693 60.8607 205.848 60.7695V60.1055C205.848 59.4935 205.708 58.9661 205.428 58.5234C205.154 58.0742 204.607 57.8496 203.787 57.8496C203.266 57.8496 202.85 57.9017 202.537 58.0059C202.225 58.1035 201.938 58.237 201.678 58.4062C201.424 58.569 201.18 58.7806 200.945 59.041C200.77 59.2363 200.604 59.2461 200.447 59.0703L199.939 58.4844C199.796 58.3216 199.845 58.1263 200.086 57.8984C200.431 57.5729 200.766 57.3288 201.092 57.166C201.417 57.0033 201.821 56.8665 202.303 56.7559C202.791 56.6387 203.286 56.5801 203.787 56.5801C205.148 56.5801 206.118 56.9316 206.697 57.6348C207.277 58.3314 207.566 59.2884 207.566 60.5059V66.5605C207.566 66.8535 207.42 67 207.127 67H206.248C205.994 67 205.867 66.8535 205.867 66.5605V66.082H205.848C205.333 66.4857 204.829 66.7689 204.334 66.9316C203.846 67.0879 203.299 67.166 202.693 67.166C201.626 67.166 200.802 66.9121 200.223 66.4043C199.65 65.89 199.363 65.1771 199.363 64.2656ZM201.141 64.3047C201.141 64.7083 201.225 65.0339 201.395 65.2812C201.564 65.5221 201.798 65.6784 202.098 65.75C202.397 65.8151 202.71 65.8477 203.035 65.8477C203.536 65.8477 204.012 65.7988 204.461 65.7012C204.91 65.6035 205.372 65.3464 205.848 64.9297V62.0488C204.533 62.1465 203.595 62.2669 203.035 62.4102C202.475 62.5469 202.02 62.7878 201.668 63.1328C201.316 63.4714 201.141 63.862 201.141 64.3047ZM210.789 67C210.496 67 210.35 66.8535 210.35 66.5605V57.1855C210.35 56.8926 210.496 56.7461 210.789 56.7461H211.609C211.902 56.7461 212.049 56.8926 212.049 57.1855V57.9668H212.088C212.511 57.498 212.97 57.1497 213.465 56.9219C213.96 56.694 214.435 56.5801 214.891 56.5801C215.73 56.5801 216.375 56.7917 216.824 57.2148C217.28 57.6315 217.573 58.0514 217.703 58.4746H217.742C218.1 57.9408 218.553 57.4915 219.1 57.127C219.646 56.7624 220.229 56.5801 220.848 56.5801C221.883 56.5801 222.664 56.9154 223.191 57.5859C223.719 58.25 223.982 59.1615 223.982 60.3203V66.5605C223.982 66.8535 223.836 67 223.543 67H222.703C222.41 67 222.264 66.8535 222.264 66.5605V60.8867C222.264 59.6107 222.104 58.7871 221.785 58.416C221.466 58.0384 220.975 57.8496 220.311 57.8496C219.66 57.8496 219.116 58.1296 218.68 58.6895C218.243 59.2428 218.025 60.0794 218.025 61.1992V66.5605C218.025 66.8535 217.879 67 217.586 67H216.746C216.453 67 216.307 66.8535 216.307 66.5605V60.8867C216.307 59.6107 216.147 58.7871 215.828 58.416C215.509 58.0384 215.018 57.8496 214.354 57.8496C213.702 57.8496 213.159 58.1035 212.723 58.6113C212.286 59.1126 212.068 59.9753 212.068 61.1992V66.5605C212.068 66.8535 211.922 67 211.629 67H210.789ZM226.18 61.873C226.18 60.2585 226.583 58.9727 227.391 58.0156C228.198 57.0586 229.354 56.5801 230.857 56.5801C232.107 56.5801 233.143 57.0195 233.963 57.8984C234.79 58.7708 235.203 60.1673 235.203 62.0879C235.203 62.3809 235.07 62.5273 234.803 62.5273H227.996C228.107 63.7839 228.445 64.6595 229.012 65.1543C229.578 65.6426 230.219 65.8867 230.936 65.8867C231.691 65.8867 232.27 65.7598 232.674 65.5059C233.077 65.252 233.374 65.0013 233.562 64.7539C233.771 64.4805 233.973 64.4284 234.168 64.5977L234.744 65.0957C234.894 65.2259 234.894 65.4049 234.744 65.6328C234.62 65.8216 234.266 66.1243 233.68 66.541C233.1 66.9577 232.186 67.166 230.936 67.166C229.308 67.166 228.107 66.6875 227.332 65.7305C226.564 64.7734 226.18 63.4876 226.18 61.873ZM227.957 61.2578H233.475C233.449 60.3464 233.214 59.5488 232.771 58.8652C232.329 58.1751 231.678 57.8301 230.818 57.8301C230.063 57.8301 229.422 58.084 228.895 58.5918C228.367 59.0931 228.055 59.9818 227.957 61.2578Z" fill="black"/>
<rect x="27.5" y="108.5" width="88" height="34.2622" rx="17.1311" fill="white" stroke="black"/>
<path d="M61.3242 131C60.9857 131 60.8978 130.785 61.0605 130.355L65.9238 117.592C66.0736 117.195 66.2884 116.996 66.5684 116.996H67.9355C68.2155 116.996 68.4303 117.195 68.5801 117.592L73.4434 130.355C73.6061 130.785 73.5182 131 73.1797 131H72.1836C71.8385 131 71.6042 130.84 71.4805 130.521L70.2598 127.289H64.2441L63.0234 130.521C62.8997 130.84 62.6654 131 62.3203 131H61.3242ZM64.8594 125.688H69.6445L68.1504 121.781C68.0137 121.417 67.877 121.013 67.7402 120.57C67.61 120.128 67.4538 119.499 67.2715 118.686H67.2324C67.0501 119.499 66.8906 120.128 66.7539 120.57C66.6237 121.013 66.4902 121.417 66.3535 121.781L64.8594 125.688ZM75.4746 131C75.1816 131 75.0352 130.854 75.0352 130.561V118.373C75.0352 118.243 75.0677 118.119 75.1328 118.002L75.8164 116.762C75.9401 116.534 76.041 116.42 76.1191 116.42H76.4609C76.6562 116.42 76.7539 116.534 76.7539 116.762V130.561C76.7539 130.854 76.6074 131 76.3145 131H75.4746ZM79.9668 131C79.6738 131 79.5273 130.854 79.5273 130.561V118.373C79.5273 118.243 79.5599 118.119 79.625 118.002L80.3086 116.762C80.4323 116.534 80.5332 116.42 80.6113 116.42H80.9531C81.1484 116.42 81.2461 116.534 81.2461 116.762V130.561C81.2461 130.854 81.0996 131 80.8066 131H79.9668Z" fill="black"/>
<rect x="130.5" y="108.5" width="134" height="34.2622" rx="17.1311" fill="white" stroke="black"/>
<path d="M170.476 131C170.137 131 170.05 130.785 170.212 130.355L175.076 117.592C175.225 117.195 175.44 116.996 175.72 116.996H177.087C177.367 116.996 177.582 117.195 177.732 117.592L182.595 130.355C182.758 130.785 182.67 131 182.331 131H181.335C180.99 131 180.756 130.84 180.632 130.521L179.412 127.289H173.396L172.175 130.521C172.052 130.84 171.817 131 171.472 131H170.476ZM174.011 125.688H178.796L177.302 121.781C177.165 121.417 177.029 121.013 176.892 120.57C176.762 120.128 176.606 119.499 176.423 118.686H176.384C176.202 119.499 176.042 120.128 175.906 120.57C175.775 121.013 175.642 121.417 175.505 121.781L174.011 125.688ZM184.626 134.906C184.333 134.906 184.187 134.76 184.187 134.467V121.186C184.187 120.893 184.333 120.746 184.626 120.746H185.447C185.681 120.746 185.808 120.893 185.828 121.186L185.886 121.967H185.906C186.264 121.537 186.667 121.199 187.117 120.951C187.566 120.704 188.165 120.58 188.913 120.58C190.216 120.58 191.205 121.114 191.882 122.182C192.559 123.243 192.898 124.473 192.898 125.873C192.898 127.273 192.559 128.507 191.882 129.574C191.205 130.635 190.216 131.166 188.913 131.166C188.165 131.166 187.566 131.042 187.117 130.795C186.667 130.548 186.264 130.209 185.906 129.779H185.886C185.899 129.975 185.906 130.173 185.906 130.375V134.467C185.906 134.76 185.759 134.906 185.466 134.906H184.626ZM185.906 126.996C185.906 127.973 186.137 128.702 186.599 129.184C187.068 129.659 187.654 129.896 188.357 129.896C189.346 129.896 190.046 129.525 190.456 128.783C190.873 128.041 191.081 127.071 191.081 125.873C191.081 124.675 190.873 123.705 190.456 122.963C190.046 122.221 189.346 121.85 188.357 121.85C187.654 121.85 187.068 122.09 186.599 122.572C186.137 123.048 185.906 123.773 185.906 124.75V126.996ZM194.568 125.873C194.568 124.343 194.971 123.08 195.779 122.084C196.593 121.081 197.781 120.58 199.343 120.58C200.906 120.58 202.091 121.081 202.898 122.084C203.712 123.08 204.119 124.343 204.119 125.873C204.119 127.403 203.712 128.669 202.898 129.672C202.091 130.668 200.906 131.166 199.343 131.166C197.781 131.166 196.593 130.668 195.779 129.672C194.971 128.669 194.568 127.403 194.568 125.873ZM196.384 125.873C196.384 127.24 196.654 128.253 197.195 128.91C197.735 129.568 198.451 129.896 199.343 129.896C200.235 129.896 200.951 129.568 201.492 128.91C202.032 128.253 202.302 127.24 202.302 125.873C202.302 124.506 202.032 123.493 201.492 122.836C200.951 122.178 200.235 121.85 199.343 121.85C198.451 121.85 197.735 122.178 197.195 122.836C196.654 123.493 196.384 124.506 196.384 125.873ZM206.775 131C206.482 131 206.335 130.854 206.335 130.561V118.373C206.335 118.243 206.368 118.119 206.433 118.002L207.117 116.762C207.24 116.534 207.341 116.42 207.419 116.42H207.761C207.956 116.42 208.054 116.534 208.054 116.762V130.561C208.054 130.854 207.908 131 207.615 131H206.775ZM211.267 131C210.974 131 210.828 130.854 210.828 130.561V118.373C210.828 118.243 210.86 118.119 210.925 118.002L211.609 116.762C211.733 116.534 211.833 116.42 211.912 116.42H212.253C212.449 116.42 212.546 116.534 212.546 116.762V130.561C212.546 130.854 212.4 131 212.107 131H211.267ZM214.763 125.873C214.763 124.343 215.167 123.08 215.974 122.084C216.788 121.081 217.976 120.58 219.538 120.58C221.101 120.58 222.286 121.081 223.093 122.084C223.907 123.08 224.314 124.343 224.314 125.873C224.314 127.403 223.907 128.669 223.093 129.672C222.286 130.668 221.101 131.166 219.538 131.166C217.976 131.166 216.788 130.668 215.974 129.672C215.167 128.669 214.763 127.403 214.763 125.873ZM216.58 125.873C216.58 127.24 216.85 128.253 217.39 128.91C217.93 129.568 218.647 129.896 219.538 129.896C220.43 129.896 221.147 129.568 221.687 128.91C222.227 128.253 222.497 127.24 222.497 125.873C222.497 124.506 222.227 123.493 221.687 122.836C221.147 122.178 220.43 121.85 219.538 121.85C218.647 121.85 217.93 122.178 217.39 122.836C216.85 123.493 216.58 124.506 216.58 125.873Z" fill="black"/>
<rect x="279.5" y="108.5" width="130" height="34.2622" rx="17.1311" fill="white" stroke="black"/>
<path d="M319.634 131C319.276 131 319.097 130.854 319.097 130.561V130.092C319.097 129.779 319.195 129.49 319.39 129.223L327.066 118.617V118.578C326.806 118.591 326.545 118.598 326.285 118.598H319.947C319.589 118.598 319.41 118.451 319.41 118.158V117.436C319.41 117.143 319.589 116.996 319.947 116.996H328.951C329.309 116.996 329.488 117.143 329.488 117.436V117.738C329.488 117.953 329.423 118.152 329.293 118.334L321.519 129.379V129.418C321.695 129.405 321.955 129.398 322.3 129.398H329.166C329.524 129.398 329.703 129.545 329.703 129.838V130.561C329.703 130.854 329.524 131 329.166 131H319.634ZM331.011 121.225C330.894 120.906 330.982 120.746 331.275 120.746H332.339C332.554 120.746 332.701 120.873 332.779 121.127L334.83 127.572C334.888 127.748 334.976 128.025 335.093 128.402C335.217 128.773 335.305 129.105 335.357 129.398H335.377C335.429 129.105 335.491 128.842 335.562 128.607C335.64 128.367 335.754 128.021 335.904 127.572L337.974 121.127C338.059 120.873 338.205 120.746 338.414 120.746H339.478C339.771 120.746 339.859 120.906 339.742 121.225L336.451 130.404C335.832 132.13 335.279 133.337 334.791 134.027C334.302 134.724 333.573 135.072 332.603 135.072C332.095 135.072 331.692 134.997 331.392 134.848C331.256 134.783 331.21 134.682 331.256 134.545L331.509 133.754C331.555 133.617 331.643 133.578 331.773 133.637C332.04 133.747 332.297 133.803 332.545 133.803C333 133.803 333.371 133.555 333.658 133.061C333.944 132.572 334.172 132.081 334.341 131.586L334.537 131.01L331.011 121.225ZM340.836 125.873C340.836 124.473 341.174 123.243 341.851 122.182C342.528 121.114 343.518 120.58 344.82 120.58C345.569 120.58 346.168 120.704 346.617 120.951C347.066 121.199 347.47 121.537 347.828 121.967H347.847C347.834 121.771 347.828 121.573 347.828 121.371V117.025C347.828 116.732 347.974 116.586 348.267 116.586H349.107C349.4 116.586 349.547 116.732 349.547 117.025V130.561C349.547 130.854 349.4 131 349.107 131H348.287C348.052 131 347.925 130.854 347.906 130.561L347.847 129.779H347.828C347.47 130.209 347.066 130.548 346.617 130.795C346.168 131.042 345.569 131.166 344.82 131.166C343.518 131.166 342.528 130.635 341.851 129.574C341.174 128.507 340.836 127.273 340.836 125.873ZM342.652 125.873C342.652 127.071 342.857 128.041 343.267 128.783C343.684 129.525 344.387 129.896 345.377 129.896C346.08 129.896 346.662 129.659 347.125 129.184C347.593 128.702 347.828 127.973 347.828 126.996V124.75C347.828 123.773 347.593 123.048 347.125 122.572C346.662 122.09 346.08 121.85 345.377 121.85C344.387 121.85 343.684 122.221 343.267 122.963C342.857 123.705 342.652 124.675 342.652 125.873ZM352.31 127.426V121.186C352.31 120.893 352.457 120.746 352.75 120.746H353.589C353.882 120.746 354.029 120.893 354.029 121.186V126.957C354.029 128.233 354.241 129.044 354.664 129.389C355.087 129.727 355.611 129.896 356.236 129.896C357.056 129.896 357.685 129.646 358.121 129.145C358.557 128.637 358.775 127.771 358.775 126.547V121.186C358.775 120.893 358.922 120.746 359.214 120.746H360.054C360.347 120.746 360.494 120.893 360.494 121.186V130.561C360.494 130.854 360.347 131 360.054 131H359.234C358.941 131 358.795 130.854 358.795 130.561V129.779H358.756C358.332 130.248 357.877 130.596 357.388 130.824C356.9 131.052 356.304 131.166 355.601 131.166C354.462 131.166 353.629 130.834 353.101 130.17C352.574 129.499 352.31 128.585 352.31 127.426ZM362.867 130.043C362.665 129.854 362.623 129.678 362.74 129.516L363.179 128.9C363.323 128.705 363.534 128.715 363.814 128.93C364.198 129.223 364.625 129.457 365.093 129.633C365.569 129.809 366.109 129.896 366.714 129.896C367.073 129.896 367.392 129.854 367.672 129.77C367.951 129.678 368.196 129.512 368.404 129.271C368.619 129.031 368.726 128.708 368.726 128.305C368.726 128.07 368.674 127.849 368.57 127.641C368.472 127.432 368.316 127.266 368.101 127.143C367.893 127.012 367.688 126.911 367.486 126.84C367.154 126.716 366.822 126.615 366.49 126.537C366.164 126.452 365.735 126.326 365.201 126.156C364.843 126.046 364.504 125.889 364.185 125.688C363.866 125.479 363.586 125.199 363.345 124.848C363.111 124.496 362.994 124.011 362.994 123.393C362.994 122.761 363.186 122.217 363.57 121.762C363.954 121.306 364.436 120.997 365.015 120.834C365.595 120.665 366.158 120.58 366.705 120.58C367.512 120.58 368.16 120.674 368.648 120.863C369.143 121.046 369.569 121.264 369.927 121.518C370.136 121.667 370.165 121.84 370.015 122.035L369.576 122.621C369.439 122.81 369.228 122.803 368.941 122.602C368.7 122.432 368.358 122.273 367.916 122.123C367.473 121.973 367.086 121.898 366.754 121.898C366.343 121.898 365.992 121.944 365.699 122.035C365.406 122.126 365.168 122.283 364.986 122.504C364.804 122.725 364.713 122.986 364.713 123.285C364.713 123.513 364.748 123.718 364.82 123.9C364.892 124.076 365.025 124.239 365.22 124.389C365.416 124.538 365.689 124.659 366.041 124.75C366.588 124.893 367.086 125.023 367.535 125.141C367.991 125.258 368.401 125.401 368.765 125.57C369.241 125.792 369.605 126.036 369.859 126.303C370.119 126.57 370.298 126.859 370.396 127.172C370.494 127.478 370.543 127.82 370.543 128.197C370.543 128.894 370.334 129.483 369.918 129.965C369.507 130.447 369.048 130.769 368.541 130.932C368.033 131.088 367.421 131.166 366.705 131.166C365.735 131.166 364.901 131.029 364.205 130.756C363.515 130.476 363.069 130.238 362.867 130.043Z" fill="black"/>
<circle cx="252.415" cy="397.976" r="18.5366" transform="rotate(90 252.415 397.976)" fill="#72B6C9"/>
<circle cx="231.562" cy="363.22" r="16.2195" transform="rotate(90 231.562 363.22)" fill="#72B6C9"/>
<circle cx="196.805" cy="365.537" r="13.9024" transform="rotate(90 196.805 365.537)" fill="#72B6C9"/>
<circle cx="180.585" cy="397.975" r="11.5854" transform="rotate(90 180.585 397.975)" fill="#72B6C9"/>
<circle cx="192.171" cy="425.78" r="9.26829" transform="rotate(90 192.171 425.78)" fill="#72B6C9"/>
<circle cx="217.658" cy="435.049" r="6.95122" transform="rotate(90 217.658 435.049)" fill="#72B6C9"/>
<circle cx="238.512" cy="428.098" r="4.63415" transform="rotate(90 238.512 428.098)" fill="#72B6C9"/>
<path d="M0 627C0 615.954 8.95431 607 20 607H420C431.046 607 440 615.954 440 627V956H0L0 627Z" fill="url(#paint0_linear_1_28551)"/>
<path d="M72.2529 637H73.7471V625.022H72.2529V637Z" fill="black"/>
<rect opacity="0.1" x="146" y="618.5" width="1" height="25" fill="black"/>
<path d="M209.392 637H210.886V626.367H214.746V625.022H205.532V626.367H209.392V637ZM216.954 637H218.398V631.704C218.398 630.135 219.303 629.172 220.73 629.172C222.158 629.172 222.822 629.944 222.822 631.555V637H224.267V631.206C224.267 629.081 223.146 627.894 221.137 627.894C219.817 627.894 218.979 628.45 218.531 629.396H218.398V624.499H216.954V637ZM230.534 637.158C232.642 637.158 233.92 635.962 234.228 634.75L234.244 634.684H232.8L232.767 634.759C232.526 635.298 231.779 635.871 230.567 635.871C228.973 635.871 227.952 634.792 227.911 632.941H234.352V632.376C234.352 629.704 232.875 627.894 230.442 627.894C228.01 627.894 226.433 629.787 226.433 632.551V632.559C226.433 635.365 227.977 637.158 230.534 637.158ZM230.434 629.181C231.754 629.181 232.733 630.019 232.883 631.787H227.936C228.093 630.085 229.106 629.181 230.434 629.181Z" fill="black"/>
<rect opacity="0.1" x="293" y="618.5" width="1" height="25" fill="black"/>
<path d="M362.119 637.282C365.182 637.282 367.208 635.323 367.208 632.368V630.907H362.352V632.219H365.713V632.509C365.713 634.535 364.269 635.904 362.127 635.904C359.72 635.904 358.218 634.028 358.218 631.015V630.999C358.218 628.027 359.745 626.118 362.119 626.118C363.904 626.118 365.107 626.964 365.597 628.508L365.622 628.591H367.133L367.116 628.508C366.643 626.234 364.775 624.74 362.119 624.74C358.84 624.74 356.69 627.222 356.69 630.999V631.015C356.69 634.842 358.807 637.282 362.119 637.282ZM373.35 637.158C375.898 637.158 377.476 635.398 377.476 632.534V632.518C377.476 629.646 375.898 627.894 373.35 627.894C370.802 627.894 369.225 629.646 369.225 632.518V632.534C369.225 635.398 370.802 637.158 373.35 637.158ZM373.35 635.879C371.657 635.879 370.702 634.643 370.702 632.534V632.518C370.702 630.401 371.657 629.172 373.35 629.172C375.043 629.172 375.998 630.401 375.998 632.518V632.534C375.998 634.643 375.043 635.879 373.35 635.879Z" fill="black"/>
<g filter="url(#filter1_d_1_28551)">
<rect x="4" y="659" width="38" height="44" rx="5" fill="white" shape-rendering="crispEdges"/>
<path d="M22.938 689H24.9595V672.794H22.9492L18.6367 675.894V678.028L22.7583 675.041H22.938V689Z" fill="black"/>
</g>
<g filter="url(#filter2_d_1_28551)">
<rect x="48" y="659" width="37" height="44" rx="5" fill="white" shape-rendering="crispEdges"/>
<path d="M60.8677 689H71.3569V687.181H63.6753V687.001L67.3589 683.194C70.29 680.173 71.0874 678.825 71.0874 676.972V676.95C71.0874 674.333 68.9199 672.413 66.0898 672.413C62.9902 672.413 60.7666 674.479 60.7554 677.354L60.7778 677.365L62.7095 677.376L62.7207 677.354C62.7207 675.445 64.0122 674.176 65.9551 674.176C67.8643 674.176 69.021 675.456 69.021 677.163V677.186C69.021 678.601 68.4146 679.443 66.3481 681.678L60.8677 687.607V689Z" fill="black"/>
</g>
<g filter="url(#filter3_d_1_28551)">
<rect x="91" y="659" width="39" height="44" rx="5" fill="white" shape-rendering="crispEdges"/>
<path d="M109.612 689.27C112.858 689.27 115.239 687.271 115.239 684.564V684.542C115.239 682.239 113.633 680.768 111.274 680.566V680.521C113.296 680.094 114.711 678.724 114.711 676.725V676.703C114.711 674.243 112.678 672.525 109.59 672.525C106.558 672.525 104.469 674.288 104.21 676.927L104.199 677.04H106.142L106.153 676.927C106.322 675.288 107.681 674.277 109.59 674.277C111.566 674.277 112.678 675.254 112.678 676.95V676.972C112.678 678.589 111.331 679.78 109.399 679.78H107.456V681.487H109.489C111.757 681.487 113.184 682.599 113.184 684.586V684.609C113.184 686.327 111.735 687.518 109.612 687.518C107.456 687.518 105.985 686.417 105.828 684.822L105.816 684.71H103.874L103.885 684.845C104.098 687.405 106.266 689.27 109.612 689.27Z" fill="black"/>
</g>
<g filter="url(#filter4_d_1_28551)">
<rect x="136" y="659" width="37" height="44" rx="5" fill="white" shape-rendering="crispEdges"/>
<path d="M155.808 689H157.785V685.642H160.087V683.834H157.785V672.794H154.854C152.585 676.175 150.103 680.128 147.913 683.8V685.642H155.808V689ZM149.979 683.845V683.71C151.743 680.734 153.865 677.388 155.685 674.67H155.819V683.845H149.979Z" fill="black"/>
</g>
<g filter="url(#filter5_d_1_28551)">
<rect x="179" y="659" width="38" height="44" rx="5" fill="white" shape-rendering="crispEdges"/>
<path d="M197.522 689.382C200.813 689.382 203.16 687.102 203.16 683.834V683.812C203.16 680.678 200.97 678.398 197.927 678.398C196.456 678.398 195.187 678.994 194.468 680.083H194.288L194.838 674.603H202.262V672.794H193.244L192.39 682.104H194.142C194.344 681.723 194.603 681.408 194.883 681.139C195.58 680.476 196.5 680.15 197.579 680.15C199.679 680.15 201.184 681.689 201.184 683.845V683.868C201.184 686.058 199.701 687.596 197.545 687.596C195.647 687.596 194.243 686.361 194.052 684.811L194.041 684.721H192.098L192.109 684.845C192.345 687.439 194.501 689.382 197.522 689.382Z" fill="black"/>
</g>
<g filter="url(#filter6_d_1_28551)">
<rect x="223" y="659" width="38" height="44" rx="5" fill="white" shape-rendering="crispEdges"/>
<path d="M241.713 689.382C244.981 689.382 247.385 687.035 247.385 683.8V683.778C247.385 680.667 245.116 678.354 242.073 678.354C239.883 678.354 238.355 679.533 237.76 680.858H237.547C237.547 680.734 237.547 680.6 237.558 680.476C237.682 677.096 238.883 674.221 241.826 674.221C243.465 674.221 244.6 675.063 245.094 676.422L245.139 676.545H247.171L247.138 676.399C246.587 674.007 244.566 672.413 241.848 672.413C237.917 672.413 235.615 675.647 235.615 681.172V681.195C235.615 687.293 238.749 689.382 241.713 689.382ZM238.03 683.778V683.767C238.03 681.655 239.625 680.117 241.725 680.117C243.825 680.117 245.352 681.667 245.352 683.823V683.845C245.352 685.945 243.724 687.596 241.691 687.596C239.636 687.596 238.03 685.912 238.03 683.778Z" fill="black"/>
</g>
<g filter="url(#filter7_d_1_28551)">
<rect x="267" y="659" width="37" height="44" rx="5" fill="white" shape-rendering="crispEdges"/>
<path d="M280.935 689H283.057L290.267 674.67V672.794H279.542V674.603H288.212V674.76L280.935 689Z" fill="black"/>
</g>
<g filter="url(#filter8_d_1_28551)">
<rect x="310" y="659" width="39" height="44" rx="5" fill="white" shape-rendering="crispEdges"/>
<path d="M328.5 689.27C331.937 689.27 334.385 687.338 334.385 684.62V684.598C334.385 682.599 332.981 680.937 330.903 680.454V680.409C332.678 679.858 333.801 678.511 333.801 676.804V676.781C333.801 674.333 331.566 672.525 328.5 672.525C325.434 672.525 323.199 674.333 323.199 676.781V676.804C323.199 678.511 324.322 679.858 326.097 680.409V680.454C324.019 680.937 322.615 682.599 322.615 684.598V684.62C322.615 687.338 325.063 689.27 328.5 689.27ZM328.5 679.656C326.546 679.656 325.209 678.544 325.209 676.972V676.95C325.209 675.377 326.546 674.266 328.5 674.266C330.454 674.266 331.791 675.377 331.791 676.95V676.972C331.791 678.544 330.454 679.656 328.5 679.656ZM328.5 687.506C326.265 687.506 324.67 686.249 324.67 684.497V684.474C324.67 682.7 326.254 681.431 328.5 681.431C330.746 681.431 332.33 682.7 332.33 684.474V684.497C332.33 686.249 330.735 687.506 328.5 687.506Z" fill="black"/>
</g>
<g filter="url(#filter9_d_1_28551)">
<rect x="355" y="659" width="37" height="44" rx="5" fill="white" shape-rendering="crispEdges"/>
<path d="M372.787 672.413C369.519 672.413 367.115 674.76 367.115 677.994V678.017C367.115 681.127 369.384 683.441 372.427 683.441C374.617 683.441 376.145 682.262 376.74 680.937H376.953C376.953 681.06 376.953 681.195 376.942 681.318C376.818 684.699 375.617 687.574 372.674 687.574C371.035 687.574 369.9 686.731 369.406 685.373L369.361 685.249H367.329L367.362 685.395C367.913 687.787 369.934 689.382 372.652 689.382C376.583 689.382 378.885 686.147 378.885 680.622V680.6C378.885 674.501 375.751 672.413 372.787 672.413ZM372.775 681.678C370.675 681.678 369.148 680.128 369.148 677.972V677.949C369.148 675.849 370.776 674.198 372.809 674.198C374.864 674.198 376.47 675.883 376.47 678.017V678.028C376.47 680.139 374.875 681.678 372.775 681.678Z" fill="black"/>
</g>
<g filter="url(#filter10_d_1_28551)">
<rect x="398" y="659" width="38" height="44" rx="5" fill="white" shape-rendering="crispEdges"/>
<path d="M416.489 689.382C420.071 689.382 422.228 686.114 422.228 680.903V680.88C422.228 675.669 420.071 672.413 416.489 672.413C412.906 672.413 410.772 675.669 410.772 680.88V680.903C410.772 686.114 412.906 689.382 416.489 689.382ZM416.489 687.619C414.164 687.619 412.805 685.036 412.805 680.903V680.88C412.805 676.748 414.164 674.187 416.489 674.187C418.813 674.187 420.195 676.748 420.195 680.88V680.903C420.195 685.036 418.813 687.619 416.489 687.619Z" fill="black"/>
</g>
<g filter="url(#filter11_d_1_28551)">
<rect x="26" y="715" width="44" height="44" rx="5" fill="white" shape-rendering="crispEdges"/>
<path d="M46.3486 746.628H47.6963V744.742C50.3467 744.528 52.5479 743.012 52.5479 740.317V740.294C52.5479 737.947 50.9307 736.757 48.0444 736.061L47.6963 735.982V730.827C49.2124 731.018 50.2905 731.95 50.4365 733.455V733.478L52.3906 733.466V733.455C52.3008 730.984 50.2905 729.3 47.6963 729.064V727.166H46.3486V729.064C43.687 729.311 41.7891 730.951 41.7891 733.354V733.376C41.7891 735.578 43.2939 736.824 46.0903 737.498L46.3486 737.565V742.967C44.3945 742.754 43.5298 741.642 43.3276 740.25V740.227L41.3735 740.238V740.25C41.4634 742.855 43.6758 744.483 46.3486 744.73V746.628ZM43.7432 733.242V733.219C43.7432 732.141 44.6416 731.063 46.3486 730.827V735.656C44.417 735.185 43.7432 734.331 43.7432 733.242ZM47.7637 737.902C49.9873 738.441 50.5938 739.228 50.5938 740.452V740.474C50.5938 741.766 49.7852 742.821 47.6963 742.99V737.891L47.7637 737.902Z" fill="black"/>
</g>
<g filter="url(#filter12_d_1_28551)">
<rect x="76" y="715" width="43" height="44" rx="5" fill="white" shape-rendering="crispEdges"/>
<path d="M96.5566 739.609H98.4209L98.6118 728.783H96.3657L96.5566 739.609ZM97.5 745.202C98.4097 745.202 99.0498 744.551 99.0498 743.641C99.0498 742.72 98.4097 742.069 97.5 742.069C96.5903 742.069 95.939 742.72 95.939 743.641C95.939 744.551 96.5903 745.202 97.5 745.202Z" fill="black"/>
</g>
<g filter="url(#filter13_d_1_28551)">
<rect x="125" y="715" width="43" height="44" rx="5" fill="white" shape-rendering="crispEdges"/>
<path d="M148.105 740.238C149.588 740.238 150.599 739.643 151.295 738.846V737.071C150.587 737.891 149.633 738.509 148.285 738.509C146.556 738.509 144.849 736.622 142.895 736.622C141.412 736.622 140.401 737.217 139.705 738.015V739.789C140.413 738.969 141.367 738.352 142.715 738.352C144.456 738.352 146.151 740.238 148.105 740.238Z" fill="black"/>
</g>
<g filter="url(#filter14_d_1_28551)">
<rect x="174" y="715" width="43" height="44" rx="5" fill="white" shape-rendering="crispEdges"/>
<path d="M193.585 745.303C195.876 745.303 197.628 744.607 198.886 743.417L200.323 745H202.861V744.989L200.031 741.968C200.941 740.44 201.379 738.475 201.379 736.263V735.971H199.492V736.251C199.492 737.835 199.223 739.306 198.65 740.497L194.674 736.251C197.246 734.881 198.178 733.668 198.178 732.074V732.051C198.178 729.94 196.438 728.413 194.045 728.413C191.676 728.413 189.913 729.962 189.913 732.029V732.051C189.913 733.163 190.44 734.151 191.957 735.836L191.361 736.128C189.171 737.206 188.104 738.7 188.104 740.665V740.688C188.104 743.394 190.362 745.303 193.585 745.303ZM191.844 732.164V732.141C191.844 730.895 192.765 730.019 194.057 730.019C195.371 730.019 196.28 730.872 196.28 732.119V732.141C196.28 733.23 195.629 734.05 193.596 735.106C192.305 733.702 191.844 733.006 191.844 732.164ZM190.126 740.553V740.53C190.126 739.194 190.979 738.06 192.529 737.318L193.068 737.06L197.617 742.035C196.696 743.012 195.416 743.596 193.765 743.596C191.597 743.596 190.126 742.361 190.126 740.553Z" fill="black"/>
</g>
<g filter="url(#filter15_d_1_28551)">
<rect x="223" y="715" width="44" height="44" rx="5" fill="white" shape-rendering="crispEdges"/>
<path d="M238.205 736.353H249.795V734.533H238.205V736.353ZM238.205 742.406H249.795V740.586H238.205V742.406Z" fill="black"/>
</g>
<g filter="url(#filter16_d_1_28551)">
<rect x="273" y="715" width="43" height="44" rx="5" fill="white" shape-rendering="crispEdges"/>
<path d="M290.906 745L291.827 740.474H295.522L294.59 745H296.196L297.128 740.474H300.059L300.374 738.857H297.454L298.296 734.769H301.104L301.418 733.163H298.622L299.52 728.794H297.914L297.016 733.163H293.321L294.219 728.794H292.625L291.726 733.163H288.941L288.615 734.769H291.4L290.569 738.857H287.908L287.593 740.474H290.232L289.312 745H290.906ZM292.164 738.857L292.995 734.769H296.69L295.859 738.857H292.164Z" fill="black"/>
</g>
<g filter="url(#filter17_d_1_28551)">
<rect x="322" y="715" width="43" height="44" rx="5" fill="white" shape-rendering="crispEdges"/>
<path d="M341.119 749.043H345.993V747.516H343.005V729.614H345.993V728.087H341.119V749.043Z" fill="black"/>
</g>
<g filter="url(#filter18_d_1_28551)">
<rect x="371" y="715" width="43" height="44" rx="5" fill="white" shape-rendering="crispEdges"/>
<path d="M393.381 749.043V728.087H388.507V729.614H391.495V747.516H388.507V749.043H393.381Z" fill="black"/>
</g>
<g filter="url(#filter19_d_1_28551)">
<rect x="4" y="771" width="44" height="44" rx="5" fill="#AEB3BE" shape-rendering="crispEdges"/>
<path d="M13.4219 799L14.0625 795.852H16.6328L15.9844 799H17.1016L17.75 795.852H19.7891L20.0078 794.727H17.9766L18.5625 791.883H20.5156L20.7344 790.766H18.7891L19.4141 787.727H18.2969L17.6719 790.766H15.1016L15.7266 787.727H14.6172L13.9922 790.766H12.0547L11.8281 791.883H13.7656L13.1875 794.727H11.3359L11.1172 795.852H12.9531L12.3125 799H13.4219ZM14.2969 794.727L14.875 791.883H17.4453L16.8672 794.727H14.2969ZM21.8672 795.094H25.3672V798.672H26.6328V795.094H30.1328V793.828H26.6328V790.25H25.3672V793.828H21.8672V795.094ZM32.0469 792.984H40.1094V791.719H32.0469V792.984ZM32.0469 797.195H40.1094V795.93H32.0469V797.195Z" fill="black"/>
</g>
<g filter="url(#filter20_d_1_28551)">
<rect x="392" y="771" width="44" height="44" rx="5" fill="#AEB3BE" shape-rendering="crispEdges"/>
<path d="M413.214 790.525C412.922 790.232 412.922 789.757 413.214 789.464C413.507 789.172 413.982 789.172 414.275 789.464L416.75 791.939L419.225 789.464C419.518 789.172 419.993 789.172 420.286 789.464C420.578 789.757 420.578 790.232 420.286 790.525L417.811 793L420.286 795.475C420.578 795.768 420.578 796.243 420.286 796.536C419.993 796.828 419.518 796.828 419.225 796.536L416.75 794.061L414.275 796.536C413.982 796.828 413.507 796.828 413.214 796.536C412.922 796.243 412.922 795.768 413.214 795.475L415.689 793L413.214 790.525Z" fill="black"/>
<path fill-rule="evenodd" clip-rule="evenodd" d="M410.121 785.379L402.5 793L410.121 800.621C410.684 801.184 411.447 801.5 412.243 801.5H422.5C424.157 801.5 425.5 800.157 425.5 798.5V787.5C425.5 785.843 424.157 784.5 422.5 784.5H412.243C411.447 784.5 410.684 784.816 410.121 785.379ZM422.5 800.2H412.243C411.792 800.2 411.359 800.021 411.041 799.702L404.339 793L411.041 786.298C411.359 785.979 411.792 785.8 412.243 785.8H422.5C423.439 785.8 424.2 786.561 424.2 787.5V798.5C424.2 799.439 423.439 800.2 422.5 800.2Z" fill="black"/>
</g>
<g filter="url(#filter21_d_1_28551)">
<rect x="70" y="771" width="70" height="44" rx="5" fill="white" shape-rendering="crispEdges"/>
<path d="M104 801.112C104.809 801.112 105.46 800.45 105.46 799.652C105.46 798.844 104.809 798.192 104 798.192C103.203 798.192 102.54 798.844 102.54 799.652C102.54 800.45 103.203 801.112 104 801.112Z" fill="black"/>
</g>
<g filter="url(#filter22_d_1_28551)">
<rect x="146" y="771" width="71" height="44" rx="5" fill="white" shape-rendering="crispEdges"/>
<path d="M173.784 803.942H187.205V802.123H173.784V803.942Z" fill="black"/>
</g>
<g filter="url(#filter23_d_1_28551)">
<rect x="223" y="771" width="70" height="44" rx="5" fill="white" shape-rendering="crispEdges"/>
<path d="M253.227 795.385H260.773V793.565H253.227V795.385Z" fill="black"/>
</g>
<g filter="url(#filter24_d_1_28551)">
<rect x="299" y="771" width="71" height="44" rx="5" fill="white" shape-rendering="crispEdges"/>
<path d="M327.559 795.385H332.59V800.528H334.41V795.385H339.441V793.565H334.41V788.422H332.59V793.565H327.559V795.385Z" fill="black"/>
</g>
<g filter="url(#filter25_d_1_28551)">
<rect x="113" y="827" width="104" height="44" rx="5" fill="white" shape-rendering="crispEdges"/>
<path d="M145.125 855.148C147.039 855.148 148.5 854.109 148.5 852.609V852.594C148.5 851.391 147.734 850.703 146.148 850.32L144.852 850.008C143.859 849.766 143.438 849.406 143.438 848.836V848.82C143.438 848.078 144.172 847.562 145.172 847.562C146.188 847.562 146.844 848.023 147.023 848.688H148.359C148.172 847.312 146.945 846.43 145.18 846.43C143.391 846.43 142.047 847.484 142.047 848.883V848.891C142.047 850.102 142.758 850.789 144.336 851.164L145.641 851.477C146.68 851.727 147.109 852.125 147.109 852.695V852.711C147.109 853.477 146.305 854.016 145.172 854.016C144.094 854.016 143.422 853.555 143.195 852.852H141.805C141.961 854.242 143.25 855.148 145.125 855.148ZM150.609 857.812H151.969V853.672H152.094C152.555 854.57 153.562 855.148 154.719 855.148C156.859 855.148 158.25 853.438 158.25 850.797V850.781C158.25 848.156 156.852 846.43 154.719 846.43C153.547 846.43 152.609 846.984 152.094 847.922H151.969V846.578H150.609V857.812ZM154.406 853.945C152.875 853.945 151.938 852.742 151.938 850.797V850.781C151.938 848.836 152.875 847.633 154.406 847.633C155.945 847.633 156.859 848.82 156.859 850.781V850.797C156.859 852.758 155.945 853.945 154.406 853.945ZM162.688 855.148C163.82 855.148 164.703 854.656 165.234 853.758H165.359V855H166.719V849.234C166.719 847.484 165.57 846.43 163.516 846.43C161.719 846.43 160.438 847.32 160.219 848.641L160.211 848.688H161.57L161.578 848.664C161.797 848.008 162.461 847.633 163.469 847.633C164.727 847.633 165.359 848.195 165.359 849.234V850L162.945 850.148C160.984 850.266 159.875 851.133 159.875 852.633V852.648C159.875 854.18 161.086 855.148 162.688 855.148ZM161.266 852.617V852.602C161.266 851.766 161.828 851.312 163.109 851.234L165.359 851.094V851.859C165.359 853.062 164.352 853.969 162.969 853.969C161.992 853.969 161.266 853.469 161.266 852.617ZM172.648 855.148C174.672 855.148 175.805 854.062 176.148 852.539L176.164 852.453L174.82 852.461L174.805 852.508C174.492 853.445 173.773 853.945 172.641 853.945C171.141 853.945 170.172 852.703 170.172 850.766V850.75C170.172 848.852 171.125 847.633 172.641 847.633C173.852 847.633 174.602 848.305 174.812 849.133L174.82 849.156H176.172L176.164 849.109C175.914 847.609 174.688 846.43 172.641 846.43C170.281 846.43 168.781 848.133 168.781 850.75V850.766C168.781 853.438 170.289 855.148 172.648 855.148ZM181.594 855.148C183.578 855.148 184.781 854.023 185.07 852.883L185.086 852.82H183.727L183.695 852.891C183.469 853.398 182.766 853.938 181.625 853.938C180.125 853.938 179.164 852.922 179.125 851.18H185.188V850.648C185.188 848.133 183.797 846.43 181.508 846.43C179.219 846.43 177.734 848.211 177.734 850.812V850.82C177.734 853.461 179.188 855.148 181.594 855.148ZM181.5 847.641C182.742 847.641 183.664 848.43 183.805 850.094H179.148C179.297 848.492 180.25 847.641 181.5 847.641Z" fill="black"/>
</g>
<g filter="url(#filter26_d_1_28551)">
<rect x="332" y="827" width="104" height="44" rx="5" fill="#246BFD" shape-rendering="crispEdges"/>
<path d="M360.891 855H362.25V849.781C362.25 848.547 363.172 847.727 364.469 847.727C364.766 847.727 365.023 847.758 365.305 847.805V846.484C365.172 846.461 364.883 846.43 364.625 846.43C363.484 846.43 362.695 846.945 362.375 847.828H362.25V846.578H360.891V855ZM370.188 855.148C372.172 855.148 373.375 854.023 373.664 852.883L373.68 852.82H372.32L372.289 852.891C372.062 853.398 371.359 853.938 370.219 853.938C368.719 853.938 367.758 852.922 367.719 851.18H373.781V850.648C373.781 848.133 372.391 846.43 370.102 846.43C367.812 846.43 366.328 848.211 366.328 850.812V850.82C366.328 853.461 367.781 855.148 370.188 855.148ZM370.094 847.641C371.336 847.641 372.258 848.43 372.398 850.094H367.742C367.891 848.492 368.844 847.641 370.094 847.641ZM378.883 855.062C379.148 855.062 379.406 855.031 379.672 854.984V853.828C379.422 853.852 379.289 853.859 379.047 853.859C378.172 853.859 377.828 853.461 377.828 852.469V847.703H379.672V846.578H377.828V844.398H376.422V846.578H375.094V847.703H376.422V852.812C376.422 854.422 377.148 855.062 378.883 855.062ZM384.523 855.148C385.758 855.148 386.609 854.641 387.023 853.742H387.148V855H388.508V846.578H387.148V851.562C387.148 853.039 386.359 853.945 384.875 853.945C383.531 853.945 382.984 853.219 382.984 851.703V846.578H381.625V852.031C381.625 854.023 382.609 855.148 384.523 855.148ZM391.047 855H392.406V849.781C392.406 848.547 393.328 847.727 394.625 847.727C394.922 847.727 395.18 847.758 395.461 847.805V846.484C395.328 846.461 395.039 846.43 394.781 846.43C393.641 846.43 392.852 846.945 392.531 847.828H392.406V846.578H391.047V855ZM397.297 855H398.656V850.016C398.656 848.539 399.508 847.633 400.852 847.633C402.195 847.633 402.82 848.359 402.82 849.875V855H404.18V849.547C404.18 847.547 403.125 846.43 401.234 846.43C399.992 846.43 399.203 846.953 398.781 847.844H398.656V846.578H397.297V855Z" fill="black"/>
</g>
<g filter="url(#filter27_d_1_28551)">
<rect x="4" y="827" width="103" height="44" rx="5" fill="#AEB3BE" shape-rendering="crispEdges"/>
<path d="M38.1641 855H39.6406L40.7734 851.773H45.2578L46.3906 855H47.8672L43.7109 843.727H42.3203L38.1641 855ZM42.9531 845.547H43.0781L44.8438 850.578H41.1875L42.9531 845.547ZM49.8438 855H54.2422C56.6406 855 58.0625 853.82 58.0625 851.844V851.828C58.0625 850.344 57.0859 849.289 55.5469 849.094V848.969C56.6328 848.773 57.4922 847.711 57.4922 846.547V846.531C57.4922 844.812 56.2266 843.727 54.1562 843.727H49.8438V855ZM53.8594 844.969C55.2578 844.969 56.0703 845.633 56.0703 846.773V846.789C56.0703 847.977 55.2031 848.586 53.5 848.586H51.25V844.969H53.8594ZM53.8984 849.797C55.6953 849.797 56.6172 850.461 56.6172 851.758V851.773C56.6172 853.07 55.7266 853.758 54.0312 853.758H51.25V849.797H53.8984ZM64.8984 855.266C67.2969 855.266 69.0781 853.93 69.4531 851.867V851.852H68.0312L68.0156 851.867C67.6641 853.164 66.4688 853.969 64.8984 853.969C62.7266 853.969 61.3672 852.195 61.3672 849.375V849.359C61.3672 846.539 62.7266 844.758 64.8906 844.758C66.4453 844.758 67.6484 845.672 68.0234 847.117L68.0312 847.133H69.4453L69.4531 847.117C69.1172 844.953 67.2656 843.461 64.8906 843.461C61.8281 843.461 59.9219 845.727 59.9219 849.359V849.375C59.9219 853 61.8359 855.266 64.8984 855.266Z" fill="black"/>
</g>
<g filter="url(#filter28_d_1_28551)">
<rect x="223" y="827" width="49" height="44" rx="5" fill="white" shape-rendering="crispEdges"/>
<path d="M247.017 859.628C248.432 859.628 249.791 859.426 250.801 859.078V857.663C250.094 857.988 248.578 858.202 247.039 858.202C242.232 858.202 239.133 855.113 239.133 850.329V850.307C239.133 845.646 242.289 842.299 246.68 842.299C251.172 842.299 254.249 845.073 254.249 849.116V849.139C254.249 851.89 253.339 853.676 251.924 853.676C251.116 853.676 250.655 853.215 250.655 852.429V845.837H248.959V847.207H248.78C248.342 846.23 247.331 845.624 246.152 845.624C243.85 845.624 242.244 847.533 242.244 850.25V850.273C242.244 853.114 243.816 855.035 246.152 855.035C247.466 855.035 248.477 854.395 248.959 853.249H249.139L249.15 853.316C249.33 854.406 250.318 855.136 251.61 855.136C254.193 855.136 255.833 852.811 255.833 849.161V849.139C255.833 844.276 252.138 840.884 246.826 840.884C241.323 840.884 237.549 844.691 237.549 850.239V850.262C237.549 855.989 241.222 859.628 247.017 859.628ZM246.41 853.451C244.939 853.451 244.041 852.261 244.041 850.318V850.295C244.041 848.341 244.928 847.173 246.433 847.173C247.96 847.173 248.937 848.386 248.937 850.295V850.318C248.937 852.227 247.949 853.451 246.41 853.451Z" fill="black"/>
</g>
<g filter="url(#filter29_d_1_28551)">
<rect x="278" y="827" width="48" height="44" rx="5" fill="white" shape-rendering="crispEdges"/>
<path d="M301.5 857.112C302.309 857.112 302.96 856.45 302.96 855.652C302.96 854.844 302.309 854.192 301.5 854.192C300.703 854.192 300.04 854.844 300.04 855.652C300.04 856.45 300.703 857.112 301.5 857.112Z" fill="black"/>
</g>
<rect x="139.039" y="934" width="161.92" height="5" rx="2.5" fill="black"/>
<path fill-rule="evenodd" clip-rule="evenodd" d="M44 922C35.7157 922 29 915.284 29 907C29 898.716 35.7157 892 44 892C52.2843 892 59 898.716 59 907C59 915.284 52.2843 922 44 922ZM44 920.5C51.4558 920.5 57.5 914.456 57.5 907C57.5 899.544 51.4558 893.5 44 893.5C36.5442 893.5 30.5 899.544 30.5 907C30.5 914.456 36.5442 920.5 44 920.5ZM43.9822 917.5C38.6363 917.5 33.5626 912.373 33.5626 908.667C33.5626 906.541 38.1832 909.1 43.9822 909.1C49.7812 909.1 54.4529 906.544 54.4374 908.667C54.4112 912.258 49.3282 917.5 43.9822 917.5ZM43.9822 912.775C48.9528 912.775 52.3913 910.853 52.3913 909.468C52.3913 908.082 48.9528 910.294 43.9822 910.294C39.0117 910.294 35.6303 908.347 35.6303 909.468C35.6303 910.588 39.0117 912.775 43.9822 912.775ZM39.4813 904.337C38.4975 904.337 37.7 903.54 37.7 902.556C37.7 901.572 38.4975 900.775 39.4813 900.775C40.465 900.775 41.2625 901.572 41.2625 902.556C41.2625 903.54 40.465 904.337 39.4813 904.337ZM48.4813 904.337C47.4975 904.337 46.7 903.54 46.7 902.556C46.7 901.572 47.4975 900.775 48.4813 900.775C49.465 900.775 50.2625 901.572 50.2625 902.556C50.2625 903.54 49.465 904.337 48.4813 904.337Z" fill="#50545B"/>
<path d="M23.9508 55L15 62.5485L23.9508 69.918V63.9508H38.8687V60.9672H23.9508V55Z" fill="black"/>
<defs>
<filter id="filter1_d_1_28551" x="4" y="659" width="38" height="45" filterUnits="userSpaceOnUse" color-interpolation-filters="sRGB">
<feFlood flood-opacity="0" result="BackgroundImageFix"/>
<feColorMatrix in="SourceAlpha" type="matrix" values="0 0 0 0 0 0 0 0 0 0 0 0 0 0 0 0 0 0 127 0" result="hardAlpha"/>
<feOffset dy="1"/>
<feComposite in2="hardAlpha" operator="out"/>
<feColorMatrix type="matrix" values="0 0 0 0 0 0 0 0 0 0 0 0 0 0 0 0 0 0 0.3 0"/>
<feBlend mode="normal" in2="BackgroundImageFix" result="effect1_dropShadow_1_28551"/>
<feBlend mode="normal" in="SourceGraphic" in2="effect1_dropShadow_1_28551" result="shape"/>
</filter>
<filter id="filter2_d_1_28551" x="48" y="659" width="37" height="45" filterUnits="userSpaceOnUse" color-interpolation-filters="sRGB">
<feFlood flood-opacity="0" result="BackgroundImageFix"/>
<feColorMatrix in="SourceAlpha" type="matrix" values="0 0 0 0 0 0 0 0 0 0 0 0 0 0 0 0 0 0 127 0" result="hardAlpha"/>
<feOffset dy="1"/>
<feComposite in2="hardAlpha" operator="out"/>
<feColorMatrix type="matrix" values="0 0 0 0 0 0 0 0 0 0 0 0 0 0 0 0 0 0 0.3 0"/>
<feBlend mode="normal" in2="BackgroundImageFix" result="effect1_dropShadow_1_28551"/>
<feBlend mode="normal" in="SourceGraphic" in2="effect1_dropShadow_1_28551" result="shape"/>
</filter>
<filter id="filter3_d_1_28551" x="91" y="659" width="39" height="45" filterUnits="userSpaceOnUse" color-interpolation-filters="sRGB">
<feFlood flood-opacity="0" result="BackgroundImageFix"/>
<feColorMatrix in="SourceAlpha" type="matrix" values="0 0 0 0 0 0 0 0 0 0 0 0 0 0 0 0 0 0 127 0" result="hardAlpha"/>
<feOffset dy="1"/>
<feComposite in2="hardAlpha" operator="out"/>
<feColorMatrix type="matrix" values="0 0 0 0 0 0 0 0 0 0 0 0 0 0 0 0 0 0 0.3 0"/>
<feBlend mode="normal" in2="BackgroundImageFix" result="effect1_dropShadow_1_28551"/>
<feBlend mode="normal" in="SourceGraphic" in2="effect1_dropShadow_1_28551" result="shape"/>
</filter>
<filter id="filter4_d_1_28551" x="136" y="659" width="37" height="45" filterUnits="userSpaceOnUse" color-interpolation-filters="sRGB">
<feFlood flood-opacity="0" result="BackgroundImageFix"/>
<feColorMatrix in="SourceAlpha" type="matrix" values="0 0 0 0 0 0 0 0 0 0 0 0 0 0 0 0 0 0 127 0" result="hardAlpha"/>
<feOffset dy="1"/>
<feComposite in2="hardAlpha" operator="out"/>
<feColorMatrix type="matrix" values="0 0 0 0 0 0 0 0 0 0 0 0 0 0 0 0 0 0 0.3 0"/>
<feBlend mode="normal" in2="BackgroundImageFix" result="effect1_dropShadow_1_28551"/>
<feBlend mode="normal" in="SourceGraphic" in2="effect1_dropShadow_1_28551" result="shape"/>
</filter>
<filter id="filter5_d_1_28551" x="179" y="659" width="38" height="45" filterUnits="userSpaceOnUse" color-interpolation-filters="sRGB">
<feFlood flood-opacity="0" result="BackgroundImageFix"/>
<feColorMatrix in="SourceAlpha" type="matrix" values="0 0 0 0 0 0 0 0 0 0 0 0 0 0 0 0 0 0 127 0" result="hardAlpha"/>
<feOffset dy="1"/>
<feComposite in2="hardAlpha" operator="out"/>
<feColorMatrix type="matrix" values="0 0 0 0 0 0 0 0 0 0 0 0 0 0 0 0 0 0 0.3 0"/>
<feBlend mode="normal" in2="BackgroundImageFix" result="effect1_dropShadow_1_28551"/>
<feBlend mode="normal" in="SourceGraphic" in2="effect1_dropShadow_1_28551" result="shape"/>
</filter>
<filter id="filter6_d_1_28551" x="223" y="659" width="38" height="45" filterUnits="userSpaceOnUse" color-interpolation-filters="sRGB">
<feFlood flood-opacity="0" result="BackgroundImageFix"/>
<feColorMatrix in="SourceAlpha" type="matrix" values="0 0 0 0 0 0 0 0 0 0 0 0 0 0 0 0 0 0 127 0" result="hardAlpha"/>
<feOffset dy="1"/>
<feComposite in2="hardAlpha" operator="out"/>
<feColorMatrix type="matrix" values="0 0 0 0 0 0 0 0 0 0 0 0 0 0 0 0 0 0 0.3 0"/>
<feBlend mode="normal" in2="BackgroundImageFix" result="effect1_dropShadow_1_28551"/>
<feBlend mode="normal" in="SourceGraphic" in2="effect1_dropShadow_1_28551" result="shape"/>
</filter>
<filter id="filter7_d_1_28551" x="267" y="659" width="37" height="45" filterUnits="userSpaceOnUse" color-interpolation-filters="sRGB">
<feFlood flood-opacity="0" result="BackgroundImageFix"/>
<feColorMatrix in="SourceAlpha" type="matrix" values="0 0 0 0 0 0 0 0 0 0 0 0 0 0 0 0 0 0 127 0" result="hardAlpha"/>
<feOffset dy="1"/>
<feComposite in2="hardAlpha" operator="out"/>
<feColorMatrix type="matrix" values="0 0 0 0 0 0 0 0 0 0 0 0 0 0 0 0 0 0 0.3 0"/>
<feBlend mode="normal" in2="BackgroundImageFix" result="effect1_dropShadow_1_28551"/>
<feBlend mode="normal" in="SourceGraphic" in2="effect1_dropShadow_1_28551" result="shape"/>
</filter>
<filter id="filter8_d_1_28551" x="310" y="659" width="39" height="45" filterUnits="userSpaceOnUse" color-interpolation-filters="sRGB">
<feFlood flood-opacity="0" result="BackgroundImageFix"/>
<feColorMatrix in="SourceAlpha" type="matrix" values="0 0 0 0 0 0 0 0 0 0 0 0 0 0 0 0 0 0 127 0" result="hardAlpha"/>
<feOffset dy="1"/>
<feComposite in2="hardAlpha" operator="out"/>
<feColorMatrix type="matrix" values="0 0 0 0 0 0 0 0 0 0 0 0 0 0 0 0 0 0 0.3 0"/>
<feBlend mode="normal" in2="BackgroundImageFix" result="effect1_dropShadow_1_28551"/>
<feBlend mode="normal" in="SourceGraphic" in2="effect1_dropShadow_1_28551" result="shape"/>
</filter>
<filter id="filter9_d_1_28551" x="355" y="659" width="37" height="45" filterUnits="userSpaceOnUse" color-interpolation-filters="sRGB">
<feFlood flood-opacity="0" result="BackgroundImageFix"/>
<feColorMatrix in="SourceAlpha" type="matrix" values="0 0 0 0 0 0 0 0 0 0 0 0 0 0 0 0 0 0 127 0" result="hardAlpha"/>
<feOffset dy="1"/>
<feComposite in2="hardAlpha" operator="out"/>
<feColorMatrix type="matrix" values="0 0 0 0 0 0 0 0 0 0 0 0 0 0 0 0 0 0 0.3 0"/>
<feBlend mode="normal" in2="BackgroundImageFix" result="effect1_dropShadow_1_28551"/>
<feBlend mode="normal" in="SourceGraphic" in2="effect1_dropShadow_1_28551" result="shape"/>
</filter>
<filter id="filter10_d_1_28551" x="398" y="659" width="38" height="45" filterUnits="userSpaceOnUse" color-interpolation-filters="sRGB">
<feFlood flood-opacity="0" result="BackgroundImageFix"/>
<feColorMatrix in="SourceAlpha" type="matrix" values="0 0 0 0 0 0 0 0 0 0 0 0 0 0 0 0 0 0 127 0" result="hardAlpha"/>
<feOffset dy="1"/>
<feComposite in2="hardAlpha" operator="out"/>
<feColorMatrix type="matrix" values="0 0 0 0 0 0 0 0 0 0 0 0 0 0 0 0 0 0 0.3 0"/>
<feBlend mode="normal" in2="BackgroundImageFix" result="effect1_dropShadow_1_28551"/>
<feBlend mode="normal" in="SourceGraphic" in2="effect1_dropShadow_1_28551" result="shape"/>
</filter>
<filter id="filter11_d_1_28551" x="26" y="715" width="44" height="45" filterUnits="userSpaceOnUse" color-interpolation-filters="sRGB">
<feFlood flood-opacity="0" result="BackgroundImageFix"/>
<feColorMatrix in="SourceAlpha" type="matrix" values="0 0 0 0 0 0 0 0 0 0 0 0 0 0 0 0 0 0 127 0" result="hardAlpha"/>
<feOffset dy="1"/>
<feComposite in2="hardAlpha" operator="out"/>
<feColorMatrix type="matrix" values="0 0 0 0 0 0 0 0 0 0 0 0 0 0 0 0 0 0 0.3 0"/>
<feBlend mode="normal" in2="BackgroundImageFix" result="effect1_dropShadow_1_28551"/>
<feBlend mode="normal" in="SourceGraphic" in2="effect1_dropShadow_1_28551" result="shape"/>
</filter>
<filter id="filter12_d_1_28551" x="76" y="715" width="43" height="45" filterUnits="userSpaceOnUse" color-interpolation-filters="sRGB">
<feFlood flood-opacity="0" result="BackgroundImageFix"/>
<feColorMatrix in="SourceAlpha" type="matrix" values="0 0 0 0 0 0 0 0 0 0 0 0 0 0 0 0 0 0 127 0" result="hardAlpha"/>
<feOffset dy="1"/>
<feComposite in2="hardAlpha" operator="out"/>
<feColorMatrix type="matrix" values="0 0 0 0 0 0 0 0 0 0 0 0 0 0 0 0 0 0 0.3 0"/>
<feBlend mode="normal" in2="BackgroundImageFix" result="effect1_dropShadow_1_28551"/>
<feBlend mode="normal" in="SourceGraphic" in2="effect1_dropShadow_1_28551" result="shape"/>
</filter>
<filter id="filter13_d_1_28551" x="125" y="715" width="43" height="45" filterUnits="userSpaceOnUse" color-interpolation-filters="sRGB">
<feFlood flood-opacity="0" result="BackgroundImageFix"/>
<feColorMatrix in="SourceAlpha" type="matrix" values="0 0 0 0 0 0 0 0 0 0 0 0 0 0 0 0 0 0 127 0" result="hardAlpha"/>
<feOffset dy="1"/>
<feComposite in2="hardAlpha" operator="out"/>
<feColorMatrix type="matrix" values="0 0 0 0 0 0 0 0 0 0 0 0 0 0 0 0 0 0 0.3 0"/>
<feBlend mode="normal" in2="BackgroundImageFix" result="effect1_dropShadow_1_28551"/>
<feBlend mode="normal" in="SourceGraphic" in2="effect1_dropShadow_1_28551" result="shape"/>
</filter>
<filter id="filter14_d_1_28551" x="174" y="715" width="43" height="45" filterUnits="userSpaceOnUse" color-interpolation-filters="sRGB">
<feFlood flood-opacity="0" result="BackgroundImageFix"/>
<feColorMatrix in="SourceAlpha" type="matrix" values="0 0 0 0 0 0 0 0 0 0 0 0 0 0 0 0 0 0 127 0" result="hardAlpha"/>
<feOffset dy="1"/>
<feComposite in2="hardAlpha" operator="out"/>
<feColorMatrix type="matrix" values="0 0 0 0 0 0 0 0 0 0 0 0 0 0 0 0 0 0 0.3 0"/>
<feBlend mode="normal" in2="BackgroundImageFix" result="effect1_dropShadow_1_28551"/>
<feBlend mode="normal" in="SourceGraphic" in2="effect1_dropShadow_1_28551" result="shape"/>
</filter>
<filter id="filter15_d_1_28551" x="223" y="715" width="44" height="45" filterUnits="userSpaceOnUse" color-interpolation-filters="sRGB">
<feFlood flood-opacity="0" result="BackgroundImageFix"/>
<feColorMatrix in="SourceAlpha" type="matrix" values="0 0 0 0 0 0 0 0 0 0 0 0 0 0 0 0 0 0 127 0" result="hardAlpha"/>
<feOffset dy="1"/>
<feComposite in2="hardAlpha" operator="out"/>
<feColorMatrix type="matrix" values="0 0 0 0 0 0 0 0 0 0 0 0 0 0 0 0 0 0 0.3 0"/>
<feBlend mode="normal" in2="BackgroundImageFix" result="effect1_dropShadow_1_28551"/>
<feBlend mode="normal" in="SourceGraphic" in2="effect1_dropShadow_1_28551" result="shape"/>
</filter>
<filter id="filter16_d_1_28551" x="273" y="715" width="43" height="45" filterUnits="userSpaceOnUse" color-interpolation-filters="sRGB">
<feFlood flood-opacity="0" result="BackgroundImageFix"/>
<feColorMatrix in="SourceAlpha" type="matrix" values="0 0 0 0 0 0 0 0 0 0 0 0 0 0 0 0 0 0 127 0" result="hardAlpha"/>
<feOffset dy="1"/>
<feComposite in2="hardAlpha" operator="out"/>
<feColorMatrix type="matrix" values="0 0 0 0 0 0 0 0 0 0 0 0 0 0 0 0 0 0 0.3 0"/>
<feBlend mode="normal" in2="BackgroundImageFix" result="effect1_dropShadow_1_28551"/>
<feBlend mode="normal" in="SourceGraphic" in2="effect1_dropShadow_1_28551" result="shape"/>
</filter>
<filter id="filter17_d_1_28551" x="322" y="715" width="43" height="45" filterUnits="userSpaceOnUse" color-interpolation-filters="sRGB">
<feFlood flood-opacity="0" result="BackgroundImageFix"/>
<feColorMatrix in="SourceAlpha" type="matrix" values="0 0 0 0 0 0 0 0 0 0 0 0 0 0 0 0 0 0 127 0" result="hardAlpha"/>
<feOffset dy="1"/>
<feComposite in2="hardAlpha" operator="out"/>
<feColorMatrix type="matrix" values="0 0 0 0 0 0 0 0 0 0 0 0 0 0 0 0 0 0 0.3 0"/>
<feBlend mode="normal" in2="BackgroundImageFix" result="effect1_dropShadow_1_28551"/>
<feBlend mode="normal" in="SourceGraphic" in2="effect1_dropShadow_1_28551" result="shape"/>
</filter>
<filter id="filter18_d_1_28551" x="371" y="715" width="43" height="45" filterUnits="userSpaceOnUse" color-interpolation-filters="sRGB">
<feFlood flood-opacity="0" result="BackgroundImageFix"/>
<feColorMatrix in="SourceAlpha" type="matrix" values="0 0 0 0 0 0 0 0 0 0 0 0 0 0 0 0 0 0 127 0" result="hardAlpha"/>
<feOffset dy="1"/>
<feComposite in2="hardAlpha" operator="out"/>
<feColorMatrix type="matrix" values="0 0 0 0 0 0 0 0 0 0 0 0 0 0 0 0 0 0 0.3 0"/>
<feBlend mode="normal" in2="BackgroundImageFix" result="effect1_dropShadow_1_28551"/>
<feBlend mode="normal" in="SourceGraphic" in2="effect1_dropShadow_1_28551" result="shape"/>
</filter>
<filter id="filter19_d_1_28551" x="4" y="771" width="44" height="45" filterUnits="userSpaceOnUse" color-interpolation-filters="sRGB">
<feFlood flood-opacity="0" result="BackgroundImageFix"/>
<feColorMatrix in="SourceAlpha" type="matrix" values="0 0 0 0 0 0 0 0 0 0 0 0 0 0 0 0 0 0 127 0" result="hardAlpha"/>
<feOffset dy="1"/>
<feComposite in2="hardAlpha" operator="out"/>
<feColorMatrix type="matrix" values="0 0 0 0 0 0 0 0 0 0 0 0 0 0 0 0 0 0 0.3 0"/>
<feBlend mode="normal" in2="BackgroundImageFix" result="effect1_dropShadow_1_28551"/>
<feBlend mode="normal" in="SourceGraphic" in2="effect1_dropShadow_1_28551" result="shape"/>
</filter>
<filter id="filter20_d_1_28551" x="392" y="771" width="44" height="45" filterUnits="userSpaceOnUse" color-interpolation-filters="sRGB">
<feFlood flood-opacity="0" result="BackgroundImageFix"/>
<feColorMatrix in="SourceAlpha" type="matrix" values="0 0 0 0 0 0 0 0 0 0 0 0 0 0 0 0 0 0 127 0" result="hardAlpha"/>
<feOffset dy="1"/>
<feComposite in2="hardAlpha" operator="out"/>
<feColorMatrix type="matrix" values="0 0 0 0 0 0 0 0 0 0 0 0 0 0 0 0 0 0 0.3 0"/>
<feBlend mode="normal" in2="BackgroundImageFix" result="effect1_dropShadow_1_28551"/>
<feBlend mode="normal" in="SourceGraphic" in2="effect1_dropShadow_1_28551" result="shape"/>
</filter>
<filter id="filter21_d_1_28551" x="70" y="771" width="70" height="45" filterUnits="userSpaceOnUse" color-interpolation-filters="sRGB">
<feFlood flood-opacity="0" result="BackgroundImageFix"/>
<feColorMatrix in="SourceAlpha" type="matrix" values="0 0 0 0 0 0 0 0 0 0 0 0 0 0 0 0 0 0 127 0" result="hardAlpha"/>
<feOffset dy="1"/>
<feComposite in2="hardAlpha" operator="out"/>
<feColorMatrix type="matrix" values="0 0 0 0 0 0 0 0 0 0 0 0 0 0 0 0 0 0 0.3 0"/>
<feBlend mode="normal" in2="BackgroundImageFix" result="effect1_dropShadow_1_28551"/>
<feBlend mode="normal" in="SourceGraphic" in2="effect1_dropShadow_1_28551" result="shape"/>
</filter>
<filter id="filter22_d_1_28551" x="146" y="771" width="71" height="45" filterUnits="userSpaceOnUse" color-interpolation-filters="sRGB">
<feFlood flood-opacity="0" result="BackgroundImageFix"/>
<feColorMatrix in="SourceAlpha" type="matrix" values="0 0 0 0 0 0 0 0 0 0 0 0 0 0 0 0 0 0 127 0" result="hardAlpha"/>
<feOffset dy="1"/>
<feComposite in2="hardAlpha" operator="out"/>
<feColorMatrix type="matrix" values="0 0 0 0 0 0 0 0 0 0 0 0 0 0 0 0 0 0 0.3 0"/>
<feBlend mode="normal" in2="BackgroundImageFix" result="effect1_dropShadow_1_28551"/>
<feBlend mode="normal" in="SourceGraphic" in2="effect1_dropShadow_1_28551" result="shape"/>
</filter>
<filter id="filter23_d_1_28551" x="223" y="771" width="70" height="45" filterUnits="userSpaceOnUse" color-interpolation-filters="sRGB">
<feFlood flood-opacity="0" result="BackgroundImageFix"/>
<feColorMatrix in="SourceAlpha" type="matrix" values="0 0 0 0 0 0 0 0 0 0 0 0 0 0 0 0 0 0 127 0" result="hardAlpha"/>
<feOffset dy="1"/>
<feComposite in2="hardAlpha" operator="out"/>
<feColorMatrix type="matrix" values="0 0 0 0 0 0 0 0 0 0 0 0 0 0 0 0 0 0 0.3 0"/>
<feBlend mode="normal" in2="BackgroundImageFix" result="effect1_dropShadow_1_28551"/>
<feBlend mode="normal" in="SourceGraphic" in2="effect1_dropShadow_1_28551" result="shape"/>
</filter>
<filter id="filter24_d_1_28551" x="299" y="771" width="71" height="45" filterUnits="userSpaceOnUse" color-interpolation-filters="sRGB">
<feFlood flood-opacity="0" result="BackgroundImageFix"/>
<feColorMatrix in="SourceAlpha" type="matrix" values="0 0 0 0 0 0 0 0 0 0 0 0 0 0 0 0 0 0 127 0" result="hardAlpha"/>
<feOffset dy="1"/>
<feComposite in2="hardAlpha" operator="out"/>
<feColorMatrix type="matrix" values="0 0 0 0 0 0 0 0 0 0 0 0 0 0 0 0 0 0 0.3 0"/>
<feBlend mode="normal" in2="BackgroundImageFix" result="effect1_dropShadow_1_28551"/>
<feBlend mode="normal" in="SourceGraphic" in2="effect1_dropShadow_1_28551" result="shape"/>
</filter>
<filter id="filter25_d_1_28551" x="113" y="827" width="104" height="45" filterUnits="userSpaceOnUse" color-interpolation-filters="sRGB">
<feFlood flood-opacity="0" result="BackgroundImageFix"/>
<feColorMatrix in="SourceAlpha" type="matrix" values="0 0 0 0 0 0 0 0 0 0 0 0 0 0 0 0 0 0 127 0" result="hardAlpha"/>
<feOffset dy="1"/>
<feComposite in2="hardAlpha" operator="out"/>
<feColorMatrix type="matrix" values="0 0 0 0 0 0 0 0 0 0 0 0 0 0 0 0 0 0 0.3 0"/>
<feBlend mode="normal" in2="BackgroundImageFix" result="effect1_dropShadow_1_28551"/>
<feBlend mode="normal" in="SourceGraphic" in2="effect1_dropShadow_1_28551" result="shape"/>
</filter>
<filter id="filter26_d_1_28551" x="332" y="827" width="104" height="45" filterUnits="userSpaceOnUse" color-interpolation-filters="sRGB">
<feFlood flood-opacity="0" result="BackgroundImageFix"/>
<feColorMatrix in="SourceAlpha" type="matrix" values="0 0 0 0 0 0 0 0 0 0 0 0 0 0 0 0 0 0 127 0" result="hardAlpha"/>
<feOffset dy="1"/>
<feComposite in2="hardAlpha" operator="out"/>
<feColorMatrix type="matrix" values="0 0 0 0 0 0 0 0 0 0 0 0 0 0 0 0 0 0 0.3 0"/>
<feBlend mode="normal" in2="BackgroundImageFix" result="effect1_dropShadow_1_28551"/>
<feBlend mode="normal" in="SourceGraphic" in2="effect1_dropShadow_1_28551" result="shape"/>
</filter>
<filter id="filter27_d_1_28551" x="4" y="827" width="103" height="45" filterUnits="userSpaceOnUse" color-interpolation-filters="sRGB">
<feFlood flood-opacity="0" result="BackgroundImageFix"/>
<feColorMatrix in="SourceAlpha" type="matrix" values="0 0 0 0 0 0 0 0 0 0 0 0 0 0 0 0 0 0 127 0" result="hardAlpha"/>
<feOffset dy="1"/>
<feComposite in2="hardAlpha" operator="out"/>
<feColorMatrix type="matrix" values="0 0 0 0 0 0 0 0 0 0 0 0 0 0 0 0 0 0 0.3 0"/>
<feBlend mode="normal" in2="BackgroundImageFix" result="effect1_dropShadow_1_28551"/>
<feBlend mode="normal" in="SourceGraphic" in2="effect1_dropShadow_1_28551" result="shape"/>
</filter>
<filter id="filter28_d_1_28551" x="223" y="827" width="49" height="45" filterUnits="userSpaceOnUse" color-interpolation-filters="sRGB">
<feFlood flood-opacity="0" result="BackgroundImageFix"/>
<feColorMatrix in="SourceAlpha" type="matrix" values="0 0 0 0 0 0 0 0 0 0 0 0 0 0 0 0 0 0 127 0" result="hardAlpha"/>
<feOffset dy="1"/>
<feComposite in2="hardAlpha" operator="out"/>
<feColorMatrix type="matrix" values="0 0 0 0 0 0 0 0 0 0 0 0 0 0 0 0 0 0 0.3 0"/>
<feBlend mode="normal" in2="BackgroundImageFix" result="effect1_dropShadow_1_28551"/>
<feBlend mode="normal" in="SourceGraphic" in2="effect1_dropShadow_1_28551" result="shape"/>
</filter>
<filter id="filter29_d_1_28551" x="278" y="827" width="48" height="45" filterUnits="userSpaceOnUse" color-interpolation-filters="sRGB">
<feFlood flood-opacity="0" result="BackgroundImageFix"/>
<feColorMatrix in="SourceAlpha" type="matrix" values="0 0 0 0 0 0 0 0 0 0 0 0 0 0 0 0 0 0 127 0" result="hardAlpha"/>
<feOffset dy="1"/>
<feComposite in2="hardAlpha" operator="out"/>
<feColorMatrix type="matrix" values="0 0 0 0 0 0 0 0 0 0 0 0 0 0 0 0 0 0 0.3 0"/>
<feBlend mode="normal" in2="BackgroundImageFix" result="effect1_dropShadow_1_28551"/>
<feBlend mode="normal" in="SourceGraphic" in2="effect1_dropShadow_1_28551" result="shape"/>
</filter>
<linearGradient id="paint0_linear_1_28551" x1="220" y1="607" x2="223.235" y2="1016.44" gradientUnits="userSpaceOnUse">
<stop stop-color="#9AD4E5"/>
<stop offset="0.908654" stop-color="#EDFFFF"/>
</linearGradient>
</defs>
</svg>
